<?xml version="1.0" encoding="UTF-8" standalone="no"?>
<!-- Created with Inkscape (http://www.inkscape.org/) -->

<svg
   width="133"
   height="36"
   viewbox="0 0 36 136"
   version="1.1"
   id="svg5"
   xml:space="preserve"
   xmlns="http://www.w3.org/2000/svg"
   xmlns:svg="http://www.w3.org/2000/svg"><defs
     id="defs2" /><path
     style="fill:#000000;stroke-width:0.0105833"
     d="m 10.169395,10.274345 c -0.003,-0.0079 -0.0278,-0.02 -0.05503,-0.02686 -0.04885,-0.0123 -0.06479,-0.02029 -0.1480863,-0.07421 -0.059661,-0.03862 -0.1443457,-0.12675 -0.1692422,-0.1761194 -0.011592,-0.022986 -0.026578,-0.048936 -0.033304,-0.057667 -0.045055,-0.058491 -0.070979,-0.3026004 -0.041656,-0.3922502 0.00916,-0.028014 0.01666,-0.058463 0.01666,-0.067662 0,-0.018887 0.046025,-0.1115061 0.078836,-0.1586472 0.045392,-0.065216 0.1717924,-0.1751904 0.2013575,-0.1751904 0.0051,0 0.0167,-0.00666 0.02589,-0.014805 0.01952,-0.017301 0.118802,-0.046378 0.201916,-0.059139 0.03202,-0.00492 0.220134,-0.00944 0.418042,-0.010063 0.333419,-0.00104 0.36319,-0.00265 0.405553,-0.021874 0.02515,-0.011411 0.05732,-0.029876 0.07151,-0.041033 0.03991,-0.031393 0.108319,-0.1173773 0.139931,-0.1758788 l 0.02859,-0.052917 V 8.214554 c 0,-0.5068044 -0.0015,-0.5557684 -0.01739,-0.5588287 -0.0096,-0.00185 -0.04988,0.02553 -0.08996,0.061156 C 10.992619,7.9039064 10.774783,8.000913 10.490153,8.0343319 10.256381,8.0617796 9.9401253,7.9857499 9.722861,7.8498702 9.635098,7.7949824 9.601314,7.7688872 9.524269,7.6964772 9.3138025,7.4986723 9.1415766,7.2294868 9.0701738,6.9867361 9.0369048,6.8736291 9.0195578,6.8007107 9.0021958,6.700986 8.9843138,6.5982773 8.9825768,6.4920116 8.9792548,5.2978976 8.9756548,4.005159 8.9788061,3.8512769 9.0128108,3.657851 9.0842438,3.2515251 9.342822,2.8639304 9.7069862,2.6173213 9.86602,2.5096249 9.9927174,2.4513301 10.188528,2.3957592 c 0.166939,-0.047377 0.211117,-0.049465 1.110842,-0.052483 0.844577,-0.00283 0.858136,-0.00255 0.947209,0.019725 0.281277,0.070344 0.477058,0.2630939 0.557786,0.5491493 0.01862,0.065966 0.01941,0.1887684 0.01941,2.9897928 0,2.7986263 -8.25e-4,2.9254351 -0.01961,3.0268345 -0.01079,0.058208 -0.02864,0.1347441 -0.03969,0.1700796 -0.01104,0.035335 -0.02008,0.070532 -0.02008,0.078216 0,0.015799 -0.02352,0.068756 -0.09186,0.2067882 -0.06141,0.1240541 -0.07917,0.1526177 -0.157954,0.2540001 -0.144408,0.1858421 -0.279137,0.3022772 -0.517481,0.4472153 -0.03205,0.01949 -0.151422,0.07661 -0.160954,0.07702 -0.0046,1.98e-4 -0.02743,0.0096 -0.05071,0.02081 -0.02328,0.01125 -0.04964,0.02061 -0.05858,0.02081 -0.0089,1.98e-4 -0.04227,0.0093 -0.07408,0.02032 -0.03181,0.01098 -0.08523,0.02322 -0.118701,0.02722 -0.03347,0.004 -0.06766,0.01407 -0.07597,0.02238 -0.02203,0.02203 -1.260268,0.02273 -1.268716,7.21e-4 z m 0.893631,-3.4794221 c 0.105592,-0.036542 0.169414,-0.08641 0.221811,-0.1733119 l 0.02553,-0.042333 0.0028,-1.5052424 0.0028,-1.5052424 -0.02489,-0.00625 c -0.01369,-0.00344 -0.136391,-0.00459 -0.272664,-0.00256 -0.288798,0.0043 -0.308757,0.00971 -0.398821,0.1082594 -0.07899,0.086427 -0.115313,0.1581116 -0.128629,0.2538462 -0.01556,0.1118711 -0.01569,2.4327144 -1.44e-4,2.556701 0.01472,0.117377 0.03734,0.1545916 0.150208,0.247076 0.09472,0.077618 0.128313,0.089878 0.248637,0.090751 0.08461,6.138e-4 0.122712,-0.00415 0.173395,-0.021693 z M 0.6952743,8.0348914 C 0.5519747,8.0156115 0.3757983,7.9446533 0.2765836,7.8662563 0.1645267,7.7777117 0.0608015,7.6225289 0.0401715,7.5125612 c -0.00414,-0.022057 -0.014405,-0.042745 -0.022815,-0.045972 -0.023142,-0.00888 -0.023142,-6.8774953 0,-6.8863756 0.00841,-0.00323 0.018106,-0.023977 0.021546,-0.046112 0.013061,-0.084037 0.090867,-0.2138828 0.1765172,-0.2945788 0.052456,-0.049422 0.071701,-0.064392 0.1454108,-0.1131083 0.050363,-0.033286 0.1539994,-0.079496 0.1947707,-0.086845 0.022134,-0.00399 0.042884,-0.014135 0.046112,-0.022545 0.00853,-0.022217 0.3371836,-0.022645 0.3457007,-4.493e-4 0.00313,0.00816 0.028645,0.019796 0.056695,0.025851 0.072209,0.015588 0.1717873,0.073046 0.2310032,0.1332915 0.079831,0.081219 0.1610859,0.1933195 0.1960803,0.2705157 0.0066,0.014552 0.018945,0.040306 0.027441,0.05723 0.0085,0.016925 0.024763,0.085263 0.036149,0.1518642 0.020004,0.1170118 0.020702,0.1832195 0.020702,1.9647164 0,1.4198188 0.00292,1.8465435 0.0127,1.8563241 0.025305,0.025305 0.060105,0.014339 0.085642,-0.026988 0.023405,-0.037876 0.067567,-0.1259917 0.091498,-0.1825626 0.00616,-0.014552 0.015483,-0.033602 0.020728,-0.042333 0.00524,-0.00873 0.038055,-0.075406 0.072912,-0.1481667 C 1.8593964,3.9501694 1.9301403,3.8038335 2.1187337,3.4148595 2.1653007,3.3188155 2.2409186,3.1628438 2.2867743,3.0682552 2.4870078,2.6552248 2.516451,2.597089 2.5507542,2.5470259 c 0.019942,-0.029104 0.051149,-0.068696 0.069348,-0.087982 0.051595,-0.054676 0.2261845,-0.1690037 0.2606315,-0.1706713 0.00873,-4.223e-4 0.03003,-0.00815 0.047329,-0.01717 0.0173,-0.00902 0.069687,-0.021308 0.1164167,-0.027304 0.3383136,-0.043414 0.6435129,0.1146077 0.7796379,0.4036696 0.056069,0.1190627 0.063771,0.1435712 0.074049,0.2356326 0.012391,0.1109846 -0.00157,0.2823771 -0.026931,0.3305759 -0.00919,0.017462 -0.016734,0.036942 -0.01677,0.043289 -7.41e-5,0.012497 -0.049624,0.1108245 -0.09019,0.1789613 -0.013862,0.023283 -0.030129,0.051858 -0.036148,0.0635 -0.00602,0.011642 -0.022929,0.040217 -0.037576,0.0635 -0.014647,0.023283 -0.036364,0.061383 -0.048259,0.084667 -0.011895,0.023283 -0.033218,0.061383 -0.047384,0.084667 -0.014166,0.023283 -0.030549,0.051858 -0.036407,0.0635 -0.00586,0.011642 -0.022636,0.040217 -0.037283,0.0635 -0.014647,0.023283 -0.036364,0.061383 -0.048259,0.084667 -0.011895,0.023283 -0.033218,0.061383 -0.047384,0.084667 -0.014166,0.023283 -0.030549,0.051858 -0.036407,0.0635 -0.00586,0.011642 -0.022636,0.040217 -0.037283,0.0635 -0.014647,0.023283 -0.036364,0.061383 -0.048259,0.084667 -0.011895,0.023283 -0.033218,0.061383 -0.047384,0.084667 -0.014166,0.023283 -0.030549,0.051858 -0.036407,0.0635 -0.00586,0.011642 -0.022636,0.040217 -0.037283,0.0635 -0.014647,0.023283 -0.036364,0.061383 -0.048259,0.084667 -0.011895,0.023283 -0.032141,0.059796 -0.044989,0.081139 -0.045338,0.075312 -0.070986,0.1260515 -0.070986,0.1404309 0,0.008 0.022622,0.027483 0.050271,0.043299 0.3209927,0.1836097 0.5668498,0.4654508 0.6783109,0.7775897 0.088958,0.2491204 0.09745,0.3463718 0.097159,1.1126165 -2.181e-4,0.5742142 -0.00207,0.6414407 -0.020526,0.7461252 -0.032847,0.1862902 -0.088273,0.285766 -0.214595,0.3851461 -0.095166,0.07487 -0.1141859,0.087268 -0.198767,0.1295773 C 3.1597108,8.077901 2.8918761,8.055444 2.6426083,7.88826 2.5505134,7.826492 2.4514647,7.7083449 2.4041357,7.6038053 2.3362477,7.4538564 2.3315807,7.392993 2.3308397,6.6480693 L 2.330193,5.9971941 2.305536,5.9442451 C 2.253487,5.8324736 2.1006778,5.7256547 1.9660462,5.7069292 1.849399,5.6907052 1.5560699,5.6919732 1.5336522,5.7087992 c -0.016129,0.012106 -0.017912,0.082894 -0.020989,0.8334378 -0.00302,0.7357158 -0.00531,0.8300081 -0.022236,0.9153355 -0.01038,0.05232 -0.022694,0.099945 -0.027364,0.1058334 -0.00467,0.00589 -0.011992,0.022613 -0.016272,0.037165 C 1.4214652,7.6866759 1.2412594,7.8745032 1.1133162,7.948149 0.979497,8.0251771 0.8392957,8.0542685 0.6952743,8.0348914 Z m 5.5827104,0.00382 C 6.0256949,8.0265094 5.6871521,7.9609997 5.5106927,7.8902361 5.4019215,7.8466167 5.276636,7.785354 5.2505676,7.7630391 c -0.00919,-0.00787 -0.020603,-0.014303 -0.025363,-0.014303 -0.00476,0 -0.03444,-0.017116 -0.065956,-0.038035 C 4.8612038,7.5128711 4.6428255,7.211136 4.554858,6.8756111 4.491596,6.634318 4.494692,6.7236357 4.494692,5.1399437 4.494692,3.775674 4.495842,3.6837748 4.514227,3.5841931 4.524971,3.5259851 4.537879,3.461691 4.542911,3.4413181 4.56788,3.3402277 4.588555,3.2752825 4.60178,3.2564006 4.60982,3.2449196 4.6164,3.2282086 4.6164,3.2192656 c 0,-0.016912 0.085956,-0.1913566 0.1057003,-0.2145165 0.0062,-0.00727 0.026409,-0.037036 0.044909,-0.06614 0.048012,-0.075532 0.2646775,-0.2881926 0.3520996,-0.3455894 0.2360147,-0.1549553 0.4473074,-0.2419836 0.7143752,-0.2942405 0.2392313,-0.04681 0.2546823,-0.048087 0.5820836,-0.048087 0.3283985,0 0.3323407,3.239e-4 0.5820835,0.047826 0.083823,0.015943 0.2056429,0.048541 0.2294919,0.061409 0.012714,0.00686 0.031242,0.012473 0.041174,0.012473 0.01691,0 0.056518,0.016184 0.1579592,0.064544 0.023283,0.0111 0.046127,0.020168 0.050764,0.020152 0.00838,-3.17e-5 0.1724249,0.092119 0.1926528,0.1082172 0.057878,0.046063 0.094493,0.07167 0.1024773,0.07167 0.022169,0 0.2421174,0.235831 0.2967191,0.3181451 0.070603,0.1064372 0.1458455,0.2471083 0.1458455,0.2726697 0,0.01007 0.00658,0.027703 0.014621,0.039185 0.032111,0.045849 0.084396,0.2857561 0.1014239,0.465376 0.012291,0.1296556 0.013022,2.7251043 8.033e-4,2.8522094 C 8.3058062,6.852714 8.2523942,7.0333253 8.1329374,7.2562965 8.0764147,7.3617981 7.949577,7.5102359 7.8381482,7.6012878 7.6488639,7.7559575 7.4787224,7.8450967 7.21461,7.927967 6.9600195,8.0078497 6.5767878,8.053162 6.2779847,8.038711 Z M 6.5769219,6.7947855 C 6.7048545,6.7510695 6.7911546,6.6804888 6.8201709,6.5958443 6.8378519,6.5442673 6.8454299,3.9233928 6.8282809,3.7924352 6.8146949,3.6887124 6.7873189,3.6434645 6.6926328,3.5682297 6.5821339,3.4804307 6.5449639,3.4677276 6.3996961,3.4681154 6.2903219,3.4684075 6.2668207,3.4716154 6.2303627,3.4912114 6.1188364,3.5511634 6.021557,3.6911772 6.0032011,3.8181643 c -0.016522,0.1142997 -0.013714,2.6348361 0.00304,2.7302411 0.020852,0.1187299 0.084201,0.1847708 0.2320999,0.2419615 0.091064,0.035213 0.2426738,0.037192 0.3385823,0.00442 z M 19.671198,8.0344303 c -0.114276,-0.00931 -0.303638,-0.038517 -0.353267,-0.054484 -0.01967,-0.00633 -0.06015,-0.017685 -0.08996,-0.025235 -0.05312,-0.013456 -0.128615,-0.0387 -0.170607,-0.057046 -0.07639,-0.033373 -0.21348,-0.1028387 -0.244502,-0.1238908 -0.02029,-0.013771 -0.03926,-0.025039 -0.04215,-0.025039 -0.01735,0 -0.163275,-0.1156206 -0.246115,-0.1949988 -0.188362,-0.18049 -0.34033,-0.4248582 -0.395389,-0.6357932 -0.0061,-0.023283 -0.01778,-0.061971 -0.026,-0.085973 -0.01472,-0.042971 -0.0241,-0.1072797 -0.04613,-0.3161939 -0.0075,-0.071134 -0.01005,-0.6801143 -0.0078,-1.8573757 0.0031,-1.6041945 0.0049,-1.7589961 0.02152,-1.8401458 0.05006,-0.2445636 0.227865,-0.4341912 0.50499,-0.5385571 0.05655,-0.021297 0.09452,-0.026863 0.213362,-0.031277 0.127176,-0.00472 0.153918,-0.00261 0.22225,0.01754 0.129598,0.038223 0.201141,0.078436 0.278583,0.1565897 0.07145,0.072104 0.167016,0.203757 0.180377,0.2484871 0.004,0.013285 0.01334,0.033905 0.02083,0.045822 0.0075,0.011917 0.02247,0.052398 0.03329,0.089958 0.01876,0.065079 0.01993,0.1551342 0.02497,1.9150832 l 0.0053,1.8467924 0.02812,0.052917 c 0.124912,0.2350841 0.550615,0.2674662 0.745608,0.056717 0.01809,-0.019552 0.0419,-0.061744 0.05292,-0.093758 0.01926,-0.05599 0.02023,-0.1290003 0.02556,-1.9155841 l 0.0055,-1.8573757 0.02259,-0.06394 c 0.04448,-0.125887 0.07353,-0.1713119 0.167427,-0.2617743 0.149515,-0.1440511 0.333726,-0.228466 0.518583,-0.2376408 0.134056,-0.00665 0.298588,0.026294 0.392603,0.078618 0.05405,0.030079 0.170795,0.1397092 0.218395,0.2050766 0.0399,0.0548 0.09202,0.1529316 0.123232,0.2320347 l 0.02714,0.068792 0.0056,1.852084 c 0.0055,1.7898298 0.0063,1.8538628 0.02585,1.9050008 0.01111,0.029104 0.0317,0.068133 0.04575,0.08673 0.02993,0.03962 0.110907,0.093777 0.156214,0.1044798 0.01746,0.00413 0.03842,0.012785 0.04658,0.019245 0.0082,0.00646 0.06904,0.013466 0.135303,0.01557 0.104653,0.00332 0.129116,6.826e-4 0.186257,-0.020094 0.124965,-0.045439 0.183501,-0.090125 0.228163,-0.1741805 l 0.02812,-0.052917 0.0053,-1.8573757 c 0.0041,-1.4535698 0.0082,-1.863853 0.01852,-1.8871689 0.0073,-0.016386 0.01323,-0.042217 0.01323,-0.057402 0,-0.05237 0.084,-0.200535 0.153322,-0.2704255 0.109508,-0.1104123 0.213365,-0.1733873 0.369258,-0.2239047 0.119572,-0.038747 0.289886,-0.03864 0.422128,2.656e-4 0.114944,0.033817 0.172286,0.065389 0.250829,0.1381059 0.127269,0.1178293 0.223235,0.2940274 0.255072,0.4683244 0.02058,0.1126634 0.02099,0.1564944 0.01784,1.8971627 -0.0032,1.7944225 -0.0041,1.8376609 -0.03956,2.0040848 -0.06382,0.2995638 -0.203227,0.5592641 -0.410316,0.7643456 -0.117745,0.1166041 -0.268267,0.2239138 -0.410215,0.2924476 -0.130207,0.062865 -0.141829,0.067607 -0.237948,0.097072 -0.04948,0.015167 -0.111752,0.034307 -0.138389,0.042533 -0.136129,0.042042 -0.465736,0.070995 -0.656109,0.057633 -0.140034,-0.00983 -0.354216,-0.03798 -0.371842,-0.048874 -0.0058,-0.00361 -0.04226,-0.014921 -0.08095,-0.025145 -0.123623,-0.032671 -0.279143,-0.096859 -0.361322,-0.1491269 -0.103023,-0.065525 -0.127595,-0.082346 -0.174684,-0.1195811 -0.0291,-0.023014 -0.08983,-0.077819 -0.134943,-0.1217891 l -0.08203,-0.079946 -0.08201,0.081444 c -0.04511,0.044794 -0.101066,0.096407 -0.124349,0.1146954 -0.112981,0.088742 -0.331104,0.2118476 -0.41275,0.2329508 -0.01746,0.00451 -0.05318,0.015614 -0.07937,0.024668 -0.09481,0.032771 -0.194704,0.059047 -0.224479,0.059047 -0.01673,0 -0.06474,0.00674 -0.106697,0.014983 -0.09469,0.018599 -0.320066,0.02703 -0.4467,0.016711 z M 14.162571,7.9233208 c -0.0808,-0.013992 -0.193318,-0.064989 -0.258332,-0.1170841 -0.05786,-0.046367 -0.123328,-0.1148431 -0.140476,-0.1469411 -0.0092,-0.017178 -0.02321,-0.037759 -0.03119,-0.045735 -0.008,-0.00798 -0.0145,-0.02116 -0.0145,-0.029296 0,-0.00814 -0.01,-0.033927 -0.02216,-0.057312 -0.02015,-0.038663 -0.02179,-0.056206 -0.01806,-0.1934717 0.003,-0.1087053 0.0088,-0.1613202 0.02104,-0.1879948 0.03559,-0.077826 0.04185,-0.090815 0.05769,-0.1198555 0.009,-0.016443 0.05279,-0.067453 0.09738,-0.1133539 C 13.96,6.8031089 14.066078,6.7474016 14.196464,6.73241 c 0.0483,-0.00555 0.343288,-0.010133 0.655535,-0.010177 0.618542,-8.47e-5 0.673421,-0.00427 0.792236,-0.06036 0.05791,-0.027336 0.190135,-0.1487789 0.190859,-0.1752901 2.01e-4,-0.00723 0.0096,-0.032189 0.02081,-0.055472 0.01602,-0.033159 0.02053,-0.065796 0.02081,-0.150603 3.07e-4,-0.094184 -0.0034,-0.1175904 -0.02874,-0.1799167 -0.03595,-0.088504 -0.137049,-0.1950648 -0.224896,-0.2370507 -0.10523,-0.050294 -0.135216,-0.062138 -0.157312,-0.062138 -0.012,0 -0.04599,-0.00953 -0.07552,-0.021167 -0.02954,-0.011642 -0.06186,-0.021098 -0.07183,-0.021013 -0.01,8.47e-5 -0.05147,-0.01 -0.09221,-0.022404 -0.04075,-0.012406 -0.107421,-0.031816 -0.148167,-0.043131 -0.04075,-0.011316 -0.0979,-0.028085 -0.127,-0.037266 -0.0291,-0.00918 -0.07911,-0.022814 -0.111125,-0.030297 -0.101764,-0.023786 -0.152035,-0.038061 -0.206579,-0.05866 -0.02922,-0.011034 -0.05965,-0.020062 -0.06763,-0.020062 -0.02258,0 -0.195046,-0.081065 -0.303453,-0.1426357 -0.186959,-0.106185 -0.363063,-0.275146 -0.496701,-0.4765539 -0.0589,-0.088765 -0.06377,-0.097176 -0.101055,-0.1745607 -0.01823,-0.037835 -0.03791,-0.077817 -0.04375,-0.088848 -0.01644,-0.031106 -0.04913,-0.1287947 -0.08006,-0.2392357 -0.02706,-0.096605 -0.02817,-0.1111098 -0.02857,-0.3704169 -3.71e-4,-0.2431719 0.0021,-0.2819176 0.02457,-0.3915834 0.02538,-0.1236314 0.0537,-0.2217867 0.0814,-0.2820579 0.0084,-0.018342 0.01532,-0.037822 0.01532,-0.043289 0,-0.01158 0.05551,-0.1205482 0.08496,-0.1667784 0.01113,-0.017463 0.02816,-0.046038 0.03786,-0.0635 0.04946,-0.089064 0.214688,-0.2720489 0.353578,-0.3915834 0.07125,-0.061322 0.321834,-0.2169585 0.349313,-0.2169585 0.0068,0 0.02504,-0.00708 0.04049,-0.015731 0.05612,-0.031425 0.224718,-0.083764 0.329716,-0.1023531 0.230428,-0.040796 0.227471,-0.040669 0.948726,-0.040484 0.656772,1.682e-4 0.713039,0.0016 0.783806,0.019985 0.139895,0.036339 0.24204,0.099949 0.319275,0.1988249 0.05837,0.074722 0.07866,0.114427 0.111808,0.2187997 0.02715,0.085499 0.02927,0.1033585 0.02381,0.2010834 -0.0091,0.1623012 -0.06145,0.2897753 -0.161038,0.3918676 -0.0754,0.0773 -0.126428,0.1092418 -0.253676,0.1587933 -0.04984,0.019408 -0.0926,0.020965 -0.735541,0.026782 l -0.682626,0.00618 -0.05292,0.02532 c -0.06625,0.031697 -0.128421,0.092887 -0.16014,0.1575995 -0.02007,0.040951 -0.02447,0.067321 -0.02474,0.148453 -2.96e-4,0.088684 0.0026,0.1036619 0.0286,0.1481667 0.01591,0.02723 0.04267,0.061416 0.05946,0.075968 0.03846,0.03333 0.186761,0.1161563 0.207935,0.1161299 0.0087,-1.06e-5 0.04921,0.00991 0.08996,0.022039 0.04075,0.012132 0.10504,0.031071 0.142875,0.042087 0.03784,0.011015 0.0926,0.027583 0.121708,0.036816 0.0291,0.00923 0.07911,0.023309 0.111125,0.031279 0.03201,0.00797 0.09155,0.024804 0.132292,0.037408 0.0721,0.022303 0.155216,0.046687 0.265963,0.078024 0.02986,0.00845 0.06892,0.022924 0.08679,0.032165 0.01787,0.00924 0.03816,0.016802 0.04509,0.016802 0.01296,0 0.04902,0.015708 0.168373,0.073342 0.07866,0.037984 0.08876,0.043749 0.172311,0.098344 0.03365,0.02199 0.06383,0.039981 0.06707,0.039981 0.0032,0 0.0551,0.040183 0.115255,0.089295 0.115844,0.094578 0.166909,0.1459136 0.251063,0.2523878 0.02859,0.036177 0.05808,0.073342 0.06554,0.08259 0.02382,0.029562 0.137684,0.2347567 0.157844,0.2844654 0.0501,0.1235317 0.06254,0.1563995 0.0722,0.1908456 0.0057,0.020373 0.01713,0.061079 0.02538,0.090458 0.05575,0.1986624 0.05837,0.664516 0.0048,0.8514587 -0.01085,0.037835 -0.02449,0.08546 -0.03033,0.1058334 -0.01433,0.050063 -0.04141,0.1253733 -0.05897,0.1640417 -0.04384,0.096514 -0.09895,0.2049232 -0.119819,0.2356994 -0.0131,0.019314 -0.02381,0.037478 -0.02381,0.040366 0,0.0081 -0.04137,0.065155 -0.110572,0.1524915 -0.06797,0.085784 -0.184676,0.2052232 -0.258592,0.2646518 -0.02534,0.020373 -0.05147,0.041841 -0.05806,0.047706 -0.06465,0.057522 -0.389175,0.2374899 -0.429895,0.2384033 -0.0088,1.979e-4 -0.03506,0.00956 -0.05834,0.020808 -0.02328,0.011247 -0.05558,0.02061 -0.07178,0.020808 -0.01619,1.979e-4 -0.04692,0.00766 -0.06828,0.016585 -0.02136,0.00892 -0.108122,0.023201 -0.192807,0.031726 -0.208725,0.021012 -1.572094,0.020716 -1.693846,-3.683e-4 z m 12.23963,3.366e-4 c -0.06985,-0.00703 -0.149788,-0.020685 -0.17764,-0.030349 -0.02785,-0.00966 -0.06119,-0.017733 -0.07408,-0.017931 -0.01289,-1.979e-4 -0.04249,-0.00956 -0.06578,-0.020808 -0.02328,-0.011247 -0.04771,-0.02061 -0.05428,-0.020808 -0.0066,-1.979e-4 -0.03991,-0.013137 -0.07408,-0.028755 -0.282018,-0.1288841 -0.54661,-0.354191 -0.706166,-0.601312 -0.08819,-0.1365972 -0.07889,-0.1198102 -0.129019,-0.2328334 -0.01291,-0.029104 -0.03118,-0.070305 -0.04061,-0.091558 -0.0094,-0.021253 -0.01714,-0.044729 -0.01714,-0.052171 0,-0.00744 -0.009,-0.04244 -0.01991,-0.077776 -0.01095,-0.035335 -0.02881,-0.1071086 -0.03969,-0.1594961 -0.01859,-0.089561 -0.01996,-0.1740498 -0.02281,-1.4146968 -0.003,-1.3090244 -4.34e-4,-1.4353248 0.03325,-1.6288733 0.03078,-0.1768164 0.11333,-0.3953393 0.194676,-0.5152973 0.0131,-0.019314 0.02381,-0.037641 0.02381,-0.040726 0,-0.00309 0.0267,-0.041092 0.05934,-0.084458 0.166938,-0.22181 0.423104,-0.407292 0.707949,-0.5126062 0.03493,-0.012913 0.08017,-0.03005 0.100542,-0.038084 0.02037,-0.00803 0.06217,-0.019239 0.09289,-0.0249 0.03072,-0.00566 0.06451,-0.014931 0.0751,-0.020597 0.01059,-0.00567 0.05928,-0.015279 0.108194,-0.021361 0.04892,-0.00608 0.105613,-0.016295 0.125985,-0.022695 0.05345,-0.016793 0.586751,-0.025027 0.703792,-0.010866 0.149328,0.018067 0.236567,0.032828 0.328084,0.055516 0.107593,0.026672 0.256705,0.073201 0.291042,0.090816 0.01455,0.00747 0.03218,0.013603 0.03918,0.013639 0.01268,6.35e-5 0.134859,0.062139 0.225399,0.1145164 0.126954,0.073442 0.300078,0.223947 0.397913,0.345924 0.08146,0.1015598 0.186954,0.2826485 0.216089,0.3709278 0.007,0.021217 0.01932,0.051213 0.02738,0.066658 0.0081,0.015445 0.01468,0.034135 0.01472,0.041533 0,0.0074 0.0094,0.04788 0.02083,0.089958 0.05895,0.2171873 0.05861,0.2106335 0.05861,1.1242565 0,0.7816522 -0.0014,0.8502231 -0.01852,0.8929768 -0.01019,0.02547 -0.01852,0.055435 -0.01852,0.066587 0,0.045004 -0.06583,0.1590507 -0.132759,0.2300003 -0.09235,0.097899 -0.186803,0.1598595 -0.347886,0.2282191 -0.0763,0.032379 -0.208235,0.037264 -1.008587,0.037345 -0.776131,7.41e-5 -0.796298,5.916e-4 -0.806979,0.020551 -0.01538,0.028744 -0.01298,0.29842 0.0034,0.3830682 0.02443,0.1261345 0.135403,0.2268826 0.3031,0.2751648 0.0623,0.017937 0.111993,0.01985 0.529167,0.020367 0.566584,7.028e-4 0.590726,0.00286 0.71365,0.063771 0.124168,0.061528 0.207597,0.1439524 0.268503,0.2652721 0.05007,0.09974 0.06632,0.1689592 0.0667,0.2842201 3.6e-4,0.1090585 -0.0149,0.176758 -0.06131,0.2719366 -0.08146,0.1670439 -0.243211,0.2851475 -0.432659,0.315898 -0.122445,0.019875 -1.283001,0.019747 -1.480893,-1.63e-4 z m 0.90252,-3.101814 0.02352,-0.016475 -1.06e-4,-0.4518375 c -1.04e-4,-0.4852585 -0.0087,-0.6197555 -0.04305,-0.6753973 -0.03265,-0.052832 -0.132575,-0.1390337 -0.204452,-0.1763784 -0.06243,-0.032433 -0.0691,-0.033577 -0.197164,-0.033764 -0.131788,-1.927e-4 -0.132861,5.4e-6 -0.186454,0.034396 -0.04924,0.031595 -0.116721,0.1071246 -0.167428,0.1873847 -0.0421,0.066641 -0.04726,0.1363668 -0.04765,0.643533 l -3.7e-4,0.4845288 0.02381,0.00957 c 0.0131,0.00526 0.193013,0.00987 0.399812,0.010242 0.323919,5.779e-4 0.379257,-0.00161 0.399521,-0.015804 z m 3.807065,3.1018388 c -0.06985,-0.00701 -0.153194,-0.020334 -0.185209,-0.029601 -0.03201,-0.00927 -0.07488,-0.021609 -0.09525,-0.02743 -0.07157,-0.020448 -0.133181,-0.045401 -0.227541,-0.092164 -0.09921,-0.049166 -0.108406,-0.054446 -0.17916,-0.1028644 -0.0237,-0.016218 -0.06133,-0.041522 -0.08363,-0.05623 -0.04822,-0.031814 -0.262588,-0.243486 -0.315117,-0.3111569 -0.154398,-0.198903 -0.270018,-0.4572832 -0.313994,-0.7016873 -0.01598,-0.088777 -0.01779,-0.3556338 -0.0206,-3.0286828 -0.0027,-2.5850494 -0.0012,-2.9378019 0.01285,-2.98613 0.0088,-0.030141 0.01593,-0.064233 0.01593,-0.07576 0,-0.046968 0.08359,-0.1880872 0.150562,-0.2541925 0.105214,-0.1038486 0.257962,-0.1978436 0.355508,-0.2187654 0.01931,-0.00414 0.03768,-0.014225 0.04082,-0.022408 0.0086,-0.022529 0.339974,-0.02171 0.356819,8.82e-4 0.0065,0.00867 0.03607,0.02032 0.06578,0.025894 0.06107,0.011454 0.166209,0.069329 0.229688,0.1264265 0.115759,0.1041249 0.220476,0.2935846 0.252222,0.4563369 0.01879,0.096335 0.01962,0.2185445 0.01971,2.9210011 1.06e-4,1.6432706 0.0041,2.8449907 0.0097,2.8792346 0.0053,0.032326 0.02057,0.07525 0.03394,0.095386 0.02466,0.037132 0.126859,0.1262973 0.144766,0.1262973 0.0054,0 0.02113,0.00863 0.03501,0.019179 0.03437,0.026117 0.15918,0.05214 0.305699,0.06374 0.166609,0.01319 0.236827,0.045848 0.355641,0.1654035 0.08719,0.087734 0.09367,0.096918 0.152552,0.2162268 l 0.0334,0.067674 -0.0036,0.1598675 -0.0036,0.1598676 -0.04756,0.09525 c -0.09092,0.1820968 -0.245716,0.2970162 -0.443275,0.3290867 -0.111366,0.018078 -0.468933,0.017704 -0.652034,-6.827e-4 z m 2.770682,-6.7e-4 c -0.07103,-0.00737 -0.149616,-0.020441 -0.174625,-0.029049 -0.02501,-0.00861 -0.06452,-0.020564 -0.08781,-0.02657 -0.102497,-0.026438 -0.289739,-0.1086212 -0.334208,-0.1466881 -0.0092,-0.00787 -0.02136,-0.014303 -0.02705,-0.014303 -0.0057,0 -0.02674,-0.011888 -0.04679,-0.026416 -0.02005,-0.014529 -0.04812,-0.03477 -0.06239,-0.044979 -0.250147,-0.1790326 -0.472694,-0.4660718 -0.572366,-0.7382297 -0.01279,-0.034925 -0.02954,-0.078499 -0.03723,-0.09683 -0.0077,-0.018331 -0.01694,-0.051669 -0.02056,-0.074083 -0.0036,-0.022415 -0.01464,-0.074091 -0.02449,-0.1148369 -0.01662,-0.0687 -0.01792,-0.2898085 -0.01792,-3.0427095 0,-2.8404348 8.36e-4,-2.9715967 0.0193,-3.0374178 0.03837,-0.136791 0.09407,-0.2219201 0.21389,-0.326882 0.0747,-0.065439 0.234746,-0.15507 0.293734,-0.1645026 0.02205,-0.00353 0.04281,-0.01347 0.04612,-0.022097 0.0088,-0.02297 0.347801,-0.023345 0.356608,-3.941e-4 0.0032,0.00841 0.02398,0.018225 0.04611,0.021811 0.179021,0.029001 0.374123,0.2269389 0.474584,0.481482 l 0.03133,0.079375 0.0053,2.8998345 c 0.0061,3.3252572 -0.0067,2.9730348 0.112244,3.0823971 0.03958,0.03638 0.07749,0.066146 0.08425,0.066146 0.0068,0 0.02365,0.00877 0.03753,0.019486 0.03722,0.028737 0.113229,0.044962 0.279486,0.059664 0.136436,0.012064 0.154965,0.016319 0.229628,0.052726 0.05995,0.029234 0.09868,0.057966 0.147922,0.10974 0.07491,0.078763 0.152698,0.1924907 0.162648,0.237789 0.0036,0.016514 0.01329,0.032595 0.02147,0.035735 0.02217,0.00851 0.02177,0.3054497 -4.13e-4,0.3139641 -0.0084,0.00323 -0.01868,0.023938 -0.02283,0.046023 -0.01718,0.09156 -0.118056,0.2307892 -0.215841,0.2978941 -0.143557,0.098517 -0.24149,0.1186988 -0.566252,0.1166933 -0.122237,-7.546e-4 -0.280368,-0.0074 -0.351402,-0.014771 z"
     id="path910" /></svg>
