<svg
  baseProfile="full"
  height="400px"
  version="1.1"
  viewBox="0 -200 700 400"
  width="700px"
  xmlns="http://www.w3.org/2000/svg"
  xmlns:ev="http://www.w3.org/2001/xml-events"
  xmlns:xlink="http://www.w3.org/1999/xlink"
>
  <defs />
  <rect fill="white" height="400" width="700" x="0" y="-200" />
  <line
    stroke="lightgray"
    stroke-width="1"
    x1="0"
    x2="700"
    y1="-200"
    y2="-200"
  />
  <line
    stroke="lightgray"
    stroke-width="1"
    x1="0"
    x2="700"
    y1="-150"
    y2="-150"
  />
  <line
    stroke="lightgray"
    stroke-width="1"
    x1="0"
    x2="700"
    y1="-100"
    y2="-100"
  />
  <line stroke="lightgray" stroke-width="1" x1="0" x2="700" y1="-50" y2="-50" />
  <line stroke="lightgray" stroke-width="1" x1="0" x2="700" y1="0" y2="0" />
  <line stroke="lightgray" stroke-width="1" x1="0" x2="700" y1="50" y2="50" />
  <line stroke="lightgray" stroke-width="1" x1="0" x2="700" y1="100" y2="100" />
  <line stroke="lightgray" stroke-width="1" x1="0" x2="700" y1="150" y2="150" />
  <line stroke="lightgray" stroke-width="1" x1="0" x2="700" y1="200" y2="200" />
  <line stroke="lightgray" stroke-width="1" x1="0" x2="0" y1="-200" y2="200" />
  <line
    stroke="lightgray"
    stroke-width="1"
    x1="50"
    x2="50"
    y1="-200"
    y2="200"
  />
  <line
    stroke="lightgray"
    stroke-width="1"
    x1="100"
    x2="100"
    y1="-200"
    y2="200"
  />
  <line
    stroke="lightgray"
    stroke-width="1"
    x1="150"
    x2="150"
    y1="-200"
    y2="200"
  />
  <line
    stroke="lightgray"
    stroke-width="1"
    x1="200"
    x2="200"
    y1="-200"
    y2="200"
  />
  <line
    stroke="lightgray"
    stroke-width="1"
    x1="250"
    x2="250"
    y1="-200"
    y2="200"
  />
  <line
    stroke="lightgray"
    stroke-width="1"
    x1="300"
    x2="300"
    y1="-200"
    y2="200"
  />
  <line
    stroke="lightgray"
    stroke-width="1"
    x1="350"
    x2="350"
    y1="-200"
    y2="200"
  />
  <line
    stroke="lightgray"
    stroke-width="1"
    x1="400"
    x2="400"
    y1="-200"
    y2="200"
  />
  <line
    stroke="lightgray"
    stroke-width="1"
    x1="450"
    x2="450"
    y1="-200"
    y2="200"
  />
  <line
    stroke="lightgray"
    stroke-width="1"
    x1="500"
    x2="500"
    y1="-200"
    y2="200"
  />
  <line
    stroke="lightgray"
    stroke-width="1"
    x1="550"
    x2="550"
    y1="-200"
    y2="200"
  />
  <line
    stroke="lightgray"
    stroke-width="1"
    x1="600"
    x2="600"
    y1="-200"
    y2="200"
  />
  <line
    stroke="lightgray"
    stroke-width="1"
    x1="650"
    x2="650"
    y1="-200"
    y2="200"
  />
  <line
    stroke="lightgray"
    stroke-width="1"
    x1="700"
    x2="700"
    y1="-200"
    y2="200"
  />

  <circle cx="100" cy="0" r="6" fill="#000"/>
  <circle cx="600" cy="0" r="6" fill="#000"/>

  <!-- Cubic Bézier Curve -->
  <path d="M 100 0 C 200 -100, 500 100, 600 0"
        stroke="red" fill="none" stroke-width="6"/>
  <text x="50" y="70" font-size="15" fill="red" font-weight="bold">Cubic</text>

  <!-- Quadratic Bézier Curve -->
  <path d="M 100 0 Q 100 -100, 600 0"
        stroke="#088" fill="none" stroke-width="6"/>
  <text x="50" y="45" font-size="15" fill="#088" font-weight="bold">Quadratic</text>

  <circle cx="100" cy="-100" r="6" fill="#088"/>
  <circle cx="200" cy="-100" r="6" fill="red"/>
  <circle cx="500" cy="100" r="6" fill="red"/>

  <line x1="100" y1="0" x2="100" y2="-100" stroke="#088" stroke-width="1" stroke-dasharray="6, 6" />
  <line x1="100" y1="-100" x2="600" y2="0" stroke="#088" stroke-width="1" stroke-dasharray="6, 6" />

  <line x1="100" y1="0" x2="200" y2="-100" stroke="red" stroke-width="1" stroke-dasharray="6, 6" />
  <line x1="200" y1="-100" x2="500" y2="100" stroke="red" stroke-width="1" stroke-dasharray="6, 6" />
  <line x1="500" y1="100" x2="600" y2="0" stroke="red" stroke-width="1" stroke-dasharray="6, 6" />

</svg>
