<?xml version="1.0" encoding="utf-8" ?>
<svg baseProfile="full" height="1300" version="1.1" width="2000" xmlns="http://www.w3.org/2000/svg" xmlns:ev="http://www.w3.org/2001/xml-events" xmlns:xlink="http://www.w3.org/1999/xlink"><defs /><rect fill="#5e5c64" height="1300" width="2000" x="0" y="0" /><g transform="translate(1000.0,650.0) scale(1,-1)"><line fill="none" stroke="#fff" stroke-linecap="round" stroke-width="28" x1="0.0" x2="-181.27045692809673" y1="0.0" y2="592.908948697082" /><line fill="none" stroke="#fff" stroke-linecap="square" stroke-width="30" x1="-187.11789102255148" x2="-181.27045692809673" y1="612.0350438163427" y2="592.908948697082" /><line fill="none" stroke="#fff" stroke-linecap="round" stroke-width="25" x1="-181.27045692809673" x2="403.72954307190327" y1="592.908948697082" y2="592.908948697082" /><circle cx="-425.58782877333323" cy="90.0" fill="none" r="311.0" stroke="#222" stroke-width="40" /><circle cx="-425.58782877333323" cy="90.0" fill="none" r="302.0" stroke="#5f4433" stroke-width="20" /><circle cx="-425.58782877333323" cy="90.0" fill="none" r="289.0" stroke="white" stroke-width="2" /><circle cx="-425.58782877333323" cy="90.0" fill="#fff" r="17.0" stroke="none" stroke-width="2" /><line fill="none" stroke="#5e5c64" stroke-linecap="round" stroke-width="10" x1="-425.58782877333323" x2="-417.0373251901915" y1="90.0" y2="66.5076844803523" /><circle cx="-425.58782877333323" cy="90.0" fill="#f00" r="5.0" stroke="none" stroke-width="2" /><polygon fill="#fff" points="2.7681208495124956,13.72361129449877 -410.8014912663993,88.98154769764233 -413.1741662802671,77.21845230235766 -2.7681208495124956,-13.72361129449877" stroke="white" stroke-width="2" /><polygon fill="#fff" points="-188.40050401708916,596.5369548311384 -437.0441082039535,101.26750383378524 -428.13154934271296,96.73249616621476 -174.1404098391043,589.2809425630256" stroke="white" stroke-width="2" /><circle cx="0.0" cy="0.0" fill="#fff" r="21.0" stroke="none" stroke-width="2" /><circle cx="0.0" cy="0.0" fill="#5e5c64" r="17.0" stroke="none" stroke-width="2" /><line fill="none" stroke="#fff" stroke-linecap="square" stroke-width="32" x1="403.72954307190327" x2="392.0346748829938" y1="592.908948697082" y2="631.1611389356034" /><line fill="none" stroke="#0f0" stroke-linecap="round" stroke-width="2" x1="403.72954307190327" x2="565.9958391930222" y1="592.908948697082" y2="62.159809137597335" /><line fill="none" stroke="#0f0" stroke-linecap="round" stroke-width="2" x1="400.0" x2="700.0" y1="90.0" y2="90.0" /><circle cx="557.4842386687206" cy="90.0" fill="#f00" r="8.0" stroke="none" stroke-width="2" /><circle cx="628.5912781098467" cy="90.0" fill="#0f0" r="8.0" stroke="none" stroke-width="2" /><circle cx="563.5625547043603" cy="70.1187240788539" fill="#00f" r="8.0" stroke="none" stroke-width="2" /><line fill="none" stroke="#ff0" stroke-linecap="round" stroke-width="2" x1="563.5625547043603" x2="628.5912781098467" y1="70.1187240788539" y2="90.0" /><circle cx="628.5912781098467" cy="90.0" fill="none" r="289.0" stroke="white" stroke-width="2" /><circle cx="628.5912781098467" cy="90.0" fill="none" r="311.0" stroke="#222" stroke-width="40" /><circle cx="628.5912781098467" cy="90.0" fill="none" r="302.0" stroke="#5f4433" stroke-width="20" /></g></svg>