<?xml version="1.0" encoding="UTF-8" standalone="no"?>
<!-- Created with Inkscape (http://www.inkscape.org/) -->

<svg
   width="640"
   height="640"
   viewBox="0 0 169.33333 169.33333"
   version="1.1"
   id="svg5"
   xml:space="preserve"
   xmlns="http://www.w3.org/2000/svg"
   xmlns:svg="http://www.w3.org/2000/svg"><defs
     id="defs2" /><path
     style="fill:#00ffff;stroke:#00ffff;stroke-width:1.05364;stroke-dasharray:none;stroke-opacity:1"
     d="m 77.005591,154.44584 c -2.079188,-0.52642 -3.15745,-0.9958 -4.870875,-2.12038 l -1.002736,-0.65813 0.637284,-3.25715 c 1.836128,-9.38445 2.517539,-17.92427 1.681448,-21.07286 -1.312689,-4.94338 0.234687,-11.40113 4.538172,-18.93942 0.767749,-1.34484 1.035765,-2.0516 0.807194,-2.12857 -0.188207,-0.0634 -2.105011,-0.61534 -4.259566,-1.22661 -8.296181,-2.35365 -17.769993,-5.788724 -25.88264,-9.384682 -4.96809,-2.202121 -12.36366,-5.922575 -14.509356,-7.299153 -4.447441,-2.85327 -7.576151,-8.830819 -7.590958,-14.502892 -0.01284,-4.918571 1.8316,-9.163811 5.833909,-13.427565 0.866943,-0.923573 2.660227,-3.048313 3.985079,-4.721643 C 46.909514,42.398241 61.177211,32.548609 78.264617,26.786811 l 3.826828,-1.290392 6.155872,-0.243906 c 3.38573,-0.134149 6.868869,-0.312772 7.740314,-0.396942 1.35632,-0.131004 1.668541,-0.06957 2.168546,0.426747 0.770681,0.764983 0.782204,2.958179 0.02809,5.346119 -0.637987,2.020209 -0.725887,4.072241 -0.204739,4.779682 0.336082,0.456225 0.471654,0.433511 2.168542,-0.363311 3.31434,-1.556334 3.34122,-1.048629 0.11087,2.093518 -1.319284,1.283271 -2.494378,2.333216 -2.611314,2.333216 -0.116937,0 -0.352681,-0.593677 -0.523879,-1.319282 l -0.311264,-1.319282 0.134876,1.224522 c 0.310527,2.819262 2.568484,11.470588 4.718451,18.078663 1.26736,3.895355 2.71848,8.665264 3.22469,10.599796 l 0.9204,3.517334 1.01163,0.186458 c 2.39822,0.442018 8.03913,2.540147 11.92434,4.435231 3.17498,1.548662 5.91907,2.596567 11.26728,4.302707 6.95738,2.219483 7.10286,2.252493 9.12575,2.070541 4.79795,-0.431564 7.95587,2.232543 10.44574,8.812329 0.96311,2.545109 0.99958,3.544018 0.13158,3.602983 -1.74538,0.118569 -3.73892,-0.828046 -7.62998,-3.623026 -1.71634,-1.232864 -3.22236,-2.241574 -3.34668,-2.241574 -1.52338,0 -26.23952,-4.933086 -33.5646,-6.699144 C 99.55561,79.744742 97.934129,79.062956 97.083807,77.69728 96.73865,77.142931 95.839339,74.30934 95.08534,71.400411 93.273513,64.410395 92.507776,61.959809 90.836429,57.802625 90.068744,55.893137 89.011661,53.01849 88.487357,51.41452 87.161687,47.358982 85.028213,38.805213 85.035619,37.575422 c 0.01187,-1.968086 1.439112,-4.07012 3.491511,-5.142224 0.480787,-0.251149 0.648163,-0.443245 0.391748,-0.449614 -0.605474,-0.01502 -2.540233,1.404536 -3.128171,2.295207 -1.104733,1.673573 -1.215409,3.039577 -0.516528,6.375156 0.35681,1.702974 1.122392,4.760165 1.70129,6.79376 l 1.052543,3.697447 -1.988942,2.038677 c -2.289046,2.346287 -4.943583,4.354235 -7.190997,5.439418 -1.461445,0.705675 -8.174269,5.529352 -16.140369,11.598098 l -3.434441,2.616427 4.273878,2.940586 c 7.59144,5.223195 13.860042,10.153494 20.167176,15.861633 1.969857,1.782778 4.256865,3.77317 5.082235,4.423092 1.948977,1.53469 2.810072,3.21978 2.804162,5.487525 -0.0034,1.29218 -0.169754,1.95171 -0.735711,2.9163 -0.596915,1.01735 -0.921122,2.4208 -1.763645,7.6346 -1.306659,8.086 -3.84507,20.79359 -5.908709,29.5797 -0.879044,3.74259 -1.612337,6.97447 -1.629545,7.18193 -0.01721,0.20747 -0.440509,0.78865 -0.940673,1.2915 -0.999006,1.00441 -1.128478,1.55459 -0.489672,2.08083 0.583607,0.48077 0.513792,0.83754 -0.361137,1.84543 l -0.758112,0.87333 z M 96.654343,35.930311 c -0.577676,-2.347968 -3.263997,-4.267724 -5.8737,-4.197591 l -1.414076,0.038 1.678874,0.19359 c 0.923381,0.106473 2.076766,0.399226 2.56308,0.650562 1.116172,0.576856 2.537778,2.271743 2.764367,3.29577 0.09535,0.430902 0.239961,0.78346 0.321365,0.78346 0.0814,0 0.06344,-0.343708 -0.03991,-0.763795 z M 38.330023,151.74942 c -1.629218,-0.95501 -4.506203,-3.66649 -4.506203,-4.24699 0,-0.1344 2.6846,-2.90523 5.965781,-6.15741 6.408404,-6.35175 10.121902,-10.8741 11.12731,-13.55099 0.315561,-0.84018 0.952456,-2.11591 1.415322,-2.83497 1.747324,-2.71443 6.528161,-6.43183 11.221646,-8.72554 1.1927,-0.58287 2.168545,-1.15412 2.168545,-1.26944 0,-0.11533 -1.110245,-0.95069 -2.467211,-1.85636 -5.533776,-3.6934 -13.543317,-9.86632 -18.938431,-14.595776 -2.835269,-2.485451 -8.700277,-8.043688 -9.435608,-8.942072 -0.305695,-0.373485 1.439171,0.384434 4.756203,2.065952 11.628879,5.895076 22.941042,10.327926 35.318854,13.840246 1.92371,0.54586 3.537973,1.02925 3.587249,1.07416 0.04928,0.0449 -0.603193,1.37484 -1.449939,2.95536 -2.744984,5.12374 -4.375808,10.04864 -4.375808,13.21446 v 1.63818 l -4.54695,4.43681 c -5.585208,5.44991 -10.845784,10.27762 -16.800321,15.41788 -2.494455,2.15334 -4.742193,4.14918 -4.994978,4.43519 -0.447238,0.50602 -0.470599,0.50359 -0.867793,-0.0902 -0.407306,-0.6089 -0.410653,-0.6091 -1.560734,-0.0943 -1.601193,0.7167 -2.136995,1.34828 -1.751068,2.06405 0.16616,0.30818 0.301254,0.66228 0.300202,0.7869 -0.0022,0.2699 -1.735021,1.47641 -2.120362,1.47641 -0.147875,0 -1.068441,-0.46869 -2.045706,-1.04154 z M 112.23295,41.419553 c -2.60159,-1.172069 -5.16323,-4.539576 -7.04042,-9.255283 -1.88936,-4.746286 -3.49593,-7.189489 -5.630266,-8.562265 -0.759886,-0.488749 -1.381413,-0.961325 -1.381175,-1.050167 2.37e-4,-0.08884 0.253907,-1.48774 0.563709,-3.108662 l 0.563279,-2.947131 -0.862023,-2.010748 c -0.474114,-1.10591 -0.82222,-2.043742 -0.773569,-2.084069 0.04865,-0.04033 0.382422,-0.225297 0.741718,-0.411044 0.861439,-0.445342 1.510888,-2.0247015 1.297168,-3.1545135 -0.164891,-0.8716905 -0.148513,-0.888036 0.889859,-0.888036 1.51767,0 1.7903,-0.8766755 1.00812,-3.2417373 -0.31972,-0.9667065 -0.56091,-1.7698752 -0.53598,-1.7848189 0.0249,-0.014943 1.24151,0.079456 2.70353,0.2097767 8.12697,0.72442 14.45137,2.6425834 18.25757,5.5374396 3.02088,2.2975754 4.4497,4.8961754 5.27327,9.5904614 0.37527,2.139014 0.21786,6.36081 -0.25464,6.829822 -0.25041,0.248561 -0.65446,0.221578 -1.7129,-0.114394 l -1.38518,-0.439691 -0.4381,1.276257 c -0.38276,1.115016 -0.38683,1.327148 -0.0323,1.679069 0.35455,0.351924 0.29957,0.556113 -0.43521,1.616179 -0.7722,1.114055 -0.83601,1.384339 -0.77959,3.302259 0.0338,1.148889 -0.0525,2.200755 -0.19179,2.337474 -0.13928,0.136722 -0.88281,0.287331 -1.65229,0.334684 -1.2516,0.07702 -1.40926,0.159292 -1.49583,0.78046 -0.13255,0.951208 -0.46845,1.292616 -1.4667,1.490789 -0.81878,0.162549 -0.83461,0.192771 -0.41344,0.789633 0.64839,0.918857 0.54213,1.279576 -0.50483,1.713796 -0.51854,0.215051 -1.11663,0.634338 -1.32911,0.931752 -0.32524,0.455233 -1.39652,1.199042 -1.69706,1.178291 -0.0485,-0.0034 -0.6272,-0.248869 -1.28582,-0.545583 z"
     id="path181" /><path
     style="fill:#ff00ff;stroke:#ff00ff;stroke-width:1.05364;stroke-dasharray:none"
     d="m 52.238974,165.92721 c -2.93914,-0.52744 -6.06902,-1.76747 -9.206225,-3.64742 -3.113483,-1.86572 -6.088845,-3.26674 -9.886441,-4.65524 -1.538968,-0.56269 -3.038975,-1.25559 -3.333348,-1.5398 -0.680979,-0.65744 -0.918012,-3.1416 -0.44038,-4.61533 0.311495,-0.96111 3.286838,-5.33984 3.633822,-5.34778 0.07695,-0.002 0.58061,0.69362 1.119249,1.5453 1.088045,1.7204 3.312195,3.66591 5.379954,4.70598 l 1.357465,0.6828 1.103905,-0.774 c 0.7366,-0.51645 1.046839,-0.9126 0.932398,-1.19059 -0.545104,-1.32415 -0.451468,-1.61866 0.700018,-2.20176 1.319209,-0.66803 2.278378,-0.74475 2.278378,-0.18221 0,0.2164 0.109636,0.43513 0.243638,0.48605 0.384263,0.14602 2.274673,3.21258 2.274673,3.68991 0,0.23647 0.183139,0.42995 0.406981,0.42995 0.223839,0 0.906891,0.65073 1.517892,1.44607 0.831278,1.08207 1.047609,1.56347 0.859433,1.91248 -0.183574,0.34048 -0.0265,0.77469 0.581718,1.60811 1.076044,1.47445 2.74598,2.66318 4.770668,3.39596 1.936951,0.70102 2.869258,1.59593 2.869258,2.75413 0,1.05622 -0.302587,1.35999 -1.667981,1.67443 -1.456837,0.3355 -2.897647,0.28908 -5.495075,-0.17704 z m 37.289518,-1.54922 c -1.308126,-0.11157 -4.141219,-0.65086 -6.295783,-1.19844 -3.53858,-0.89932 -9.485415,-1.81191 -11.807186,-1.81191 -2.119099,0 -3.184812,-1.36249 -3.386893,-4.33007 -0.09778,-1.43599 0.01612,-1.98843 0.753999,-3.65722 0.478055,-1.08115 0.869187,-2.14266 0.869187,-2.35892 0,-0.82996 0.413048,-0.71584 1.685598,0.46567 1.617058,1.50139 3.529356,2.48816 6.030373,3.11175 l 1.901272,0.47406 0.91978,-1.05617 0.919769,-1.05615 -0.576687,-0.8039 -0.576687,-0.8039 1.111145,-1.10293 c 1.19005,-1.18124 1.65895,-1.34928 1.915239,-0.68632 0.08862,0.22913 0.290902,0.41661 0.449599,0.41661 0.41634,0 2.830788,2.24629 3.081091,2.86651 0.134934,0.33435 0.373498,0.46283 0.658108,0.35441 0.658795,-0.25093 3.187513,1.93091 3.187513,2.75026 0,1.31939 3.517333,2.9786 7.102805,3.35057 3.411216,0.3539 4.103166,2.90681 1.122884,4.14285 -2.088286,0.86609 -5.606085,1.22824 -9.065126,0.93324 z"
     id="path195" /></svg>
