<?xml version="1.0" encoding="UTF-8" standalone="no"?>
<!-- Created with Inkscape (http://www.inkscape.org/) -->

<svg
   width="256"
   height="256"
   viewBox="0 0 67.733333 67.733333"
   version="1.1"
   id="svg5"
   inkscape:version="1.2.2 (b0a8486541, 2022-12-01)"
   xml:space="preserve"
   sodipodi:docname="logo.svg"
   inkscape:export-filename="logo.png"
   inkscape:export-xdpi="96"
   inkscape:export-ydpi="96"
   xmlns:inkscape="http://www.inkscape.org/namespaces/inkscape"
   xmlns:sodipodi="http://sodipodi.sourceforge.net/DTD/sodipodi-0.dtd"
   xmlns="http://www.w3.org/2000/svg"
   xmlns:svg="http://www.w3.org/2000/svg"><sodipodi:namedview
     id="namedview7"
     pagecolor="#ffffff"
     bordercolor="#000000"
     borderopacity="0.25"
     inkscape:showpageshadow="2"
     inkscape:pageopacity="0.0"
     inkscape:pagecheckerboard="0"
     inkscape:deskcolor="#d1d1d1"
     inkscape:document-units="mm"
     showgrid="false"
     inkscape:zoom="1.4945666"
     inkscape:cx="136.82896"
     inkscape:cy="179.98528"
     inkscape:window-width="1366"
     inkscape:window-height="720"
     inkscape:window-x="0"
     inkscape:window-y="24"
     inkscape:window-maximized="1"
     inkscape:current-layer="layer1" /><defs
     id="defs2" /><g
     inkscape:label="Layer 1"
     inkscape:groupmode="layer"
     id="layer1"><path
       style="fill:#ff8080;stroke-width:0.0399802"
       d="M 12.97895,63.294988 C 12.560231,63.258255 11.606351,63.109521 11.179828,63.014483 7.5410133,62.203738 4.4439885,59.964701 2.5081528,56.745188 1.6101325,55.251672 1.0251152,53.594707 0.74303866,51.745742 0.63422276,51.032481 0.59192217,49.412686 0.6623919,48.657946 c 0.27955818,-2.993391 1.5074813,-5.76533 3.5114558,-7.926801 2.2082345,-2.381785 4.9793526,-3.820171 8.2053713,-4.259098 0.653644,-0.08896 2.102581,-0.120804 2.803969,-0.0617 2.309714,0.194727 4.433628,0.933057 6.350972,2.207775 0.774887,0.515172 1.34239,0.977107 2.033226,1.655019 l 0.573383,0.562634 0.13021,-0.203541 c 0.182481,-0.285283 0.204323,-0.33005 0.301027,-0.617101 0.348508,-1.034536 1.191876,-1.9885 2.580266,-2.918644 0.548674,-0.367572 1.364336,-0.839778 1.948748,-1.128161 0.192405,-0.0949 0.349829,-0.183603 0.349829,-0.197007 0,-0.01342 -0.247378,-0.192947 -0.549732,-0.398967 -2.586036,-1.762138 -4.751358,-3.460144 -7.106515,-5.572788 -0.856863,-0.768643 -3.362201,-3.258879 -3.757703,-3.73507 -1.424245,-1.714802 -1.850362,-3.838581 -1.18065,-5.88443 0.475088,-1.451319 1.432298,-2.630511 2.619493,-3.226964 0.197902,-0.09938 0.665674,-0.405785 1.03949,-0.680806 4.067211,-2.992236 8.51905,-4.804728 13.513372,-5.501745 1.23201,-0.171941 2.929607,-0.302056 3.964081,-0.303837 0.713413,-10e-4 1.730607,0.202836 2.892557,0.580294 0.705022,0.229025 1.060101,0.317883 1.499264,0.37522 0.767091,0.100101 0.911287,0.127558 1.052941,0.200203 0.17731,0.09094 0.306421,0.224198 0.363701,0.375366 0.141128,0.372474 -0.107867,1.066806 -0.666744,1.859269 -0.211838,0.300369 -0.332017,0.617524 -0.359625,0.949041 -0.0164,0.196872 -0.007,0.255468 0.05094,0.313283 0.08544,0.08544 0.186952,0.07815 1.018064,-0.07305 0.642658,-0.116901 0.971161,-0.122708 0.991136,-0.01758 0.02547,0.134071 -0.558427,0.479449 -1.890694,1.118348 l -0.719647,0.345116 0.006,1.396606 c 0.0066,1.556077 0.04442,2.221584 0.21511,3.771554 0.141819,1.287748 0.2211,2.201315 0.282773,3.258401 0.02565,0.43978 0.05165,0.80549 0.05776,0.81268 0.0063,0.0074 0.233111,-0.01509 0.504452,-0.04954 1.130484,-0.143447 2.571178,-0.168973 3.722821,-0.06597 0.384326,0.03434 0.634198,0.01124 3.444521,-0.318207 l 2.036267,-0.238735 0.120557,-0.123311 c 0.243577,-0.249131 0.767533,-0.424275 1.387019,-0.463621 1.5034,-0.09554 2.631259,1.013517 3.440222,3.382744 0.152945,0.447928 0.152523,0.650971 -0.0016,0.805178 -0.145925,0.145924 -0.351345,0.154811 -0.748497,0.03236 -0.582846,-0.179691 -0.962985,-0.399072 -1.885786,-1.088315 -0.49064,-0.366459 -0.910279,-0.666278 -0.93254,-0.666278 -0.02226,0 -1.15008,0.277258 -2.506271,0.61613 -5.121883,1.279819 -9.527317,2.222471 -10.386603,2.222471 -0.562828,0 -1.075998,-0.25703 -1.4231,-0.712772 -0.314944,-0.413527 -0.349376,-0.586204 -0.391981,-1.96591 -0.08731,-2.827372 -0.151541,-3.632488 -0.419426,-5.257421 -0.167249,-1.014508 -0.339463,-2.358 -0.339518,-2.648703 -1.3e-5,-0.07149 -0.0172,-0.12994 -0.03818,-0.12994 -0.02099,0 -0.214392,0.114018 -0.429788,0.253356 -1.292088,0.835897 -2.598051,1.36496 -3.670025,1.486773 -0.239103,0.02716 -1.202262,0.362889 -3.973722,1.385086 -0.717029,0.26446 -1.328111,0.49437 -1.357957,0.510906 -0.03711,0.0206 0.139837,0.167308 0.559727,0.464181 2.33719,1.652491 4.581331,3.479333 6.850932,5.576993 0.351827,0.325179 0.75106,0.672813 0.887183,0.772524 0.944161,0.691626 1.176015,2.048949 0.510503,2.988563 -0.117086,0.165309 -0.140089,0.245716 -0.217326,0.759629 -0.629619,4.189347 -1.510141,8.638596 -2.561863,12.945041 -0.131079,0.536724 -0.232504,0.981696 -0.225383,0.988814 0.0072,0.0074 0.07069,-0.0094 0.141261,-0.03548 0.146779,-0.05536 0.241855,-0.01717 0.305678,0.123064 0.0217,0.04766 0.07152,0.08668 0.110688,0.08668 0.09639,0 1.029268,0.868841 1.029268,0.958594 0,0.110397 0.101449,0.171272 0.236126,0.141688 0.107264,-0.02352 0.168926,0.01342 0.604054,0.362755 0.504567,0.405013 0.503118,0.402838 0.4171,0.626994 -0.03355,0.08742 0.384918,0.440717 0.738909,0.623811 0.470053,0.243116 0.914465,0.368603 1.412141,0.39874 l 0.429789,0.02601 1.2e-4,-0.679742 c 7.56e-4,-3.976024 1.748458,-7.724551 4.79751,-10.290107 2.003387,-1.685706 4.296534,-2.692221 6.996571,-3.07098 0.708988,-0.09947 2.648493,-0.09947 3.358354,-1.24e-4 3.053165,0.427543 5.611274,1.66941 7.750209,3.762439 2.176581,2.129867 3.533112,4.853273 3.94472,7.919528 0.09042,0.673541 0.12102,2.027533 0.06236,2.758641 -0.34151,4.255977 -2.625328,8.035251 -6.255681,10.351916 -1.466945,0.936118 -3.269406,1.619316 -5.005507,1.897261 -0.773788,0.123874 -1.312668,0.164676 -2.175272,0.164676 -0.86349,0 -1.401457,-0.04079 -2.178229,-0.165155 -2.255373,-0.361099 -4.43638,-1.333169 -6.257636,-2.789026 -0.459089,-0.366979 -1.425471,-1.303565 -1.798925,-1.743448 -1.519202,-1.789453 -2.526385,-3.856561 -2.980284,-6.116628 -0.05737,-0.285647 -0.110431,-0.525485 -0.117918,-0.532976 -0.0076,-0.0074 -0.04751,0.004 -0.08892,0.02675 -0.117096,0.06264 -0.671405,0.196298 -1.100974,0.265426 -0.459966,0.07398 -1.490911,0.08346 -2.035493,0.01862 -0.508601,-0.06056 -1.207296,-0.210212 -1.858337,-0.398051 -0.956812,-0.276074 -1.8873,-0.435732 -3.132709,-0.537514 -1.247301,-0.101979 -1.285499,-0.109358 -1.522064,-0.29547 -0.136284,-0.107213 -0.344524,-0.566952 -0.422162,-0.932016 -0.112304,-0.528066 -0.02878,-1.006181 0.289502,-1.6571 0.09784,-0.200099 0.208084,-0.492456 0.24498,-0.649681 0.05795,-0.246914 0.079,-0.285863 0.154539,-0.285863 0.05515,0 0.146742,0.07013 0.247957,0.189909 0.08828,0.104446 0.173266,0.177257 0.188862,0.161793 0.06185,-0.06129 0.443646,-2.107607 0.613915,-3.290379 0.217399,-1.510186 0.25908,-2.03053 0.260997,-3.258277 0.0017,-1.130605 9.06e-4,-1.14198 -0.105432,-1.465325 -0.05897,-0.179234 -0.118514,-0.422123 -0.132329,-0.539731 -0.0138,-0.11763 -0.03305,-0.238829 -0.04274,-0.26936 -0.01097,-0.03444 -0.39238,0.314064 -1.006368,0.91955 -1.446282,1.426252 -4.291375,4.10332 -4.46756,4.203716 -0.04142,0.02362 -0.0179,0.111263 0.107297,0.399802 0.484326,1.11612 0.837013,2.473443 0.999829,3.847862 0.06735,0.568513 0.06599,2.30988 -0.0021,2.838611 -0.02837,0.21989 -0.06562,0.580907 -0.0828,0.802265 -0.01717,0.221346 -0.05339,0.443869 -0.08049,0.494495 -0.0271,0.05068 -0.101806,0.301307 -0.166009,0.557076 -0.576428,2.295969 -1.746265,4.400164 -3.385996,6.090384 -2.145987,2.212054 -4.839809,3.576025 -7.923771,4.012071 -0.440249,0.06223 -2.426253,0.112416 -2.878582,0.07274 z m 2.813376,-2.172032 c 4.239983,-0.650689 7.771126,-3.62794 9.113402,-7.683902 0.187974,-0.567994 0.192563,-0.610689 0.06733,-0.626318 -0.261753,-0.03267 -1.059876,-0.266614 -1.475827,-0.43259 -0.623884,-0.248955 -0.9731,-0.427991 -1.75834,-0.901486 -1.006243,-0.606765 -1.971529,-1.051042 -3.302626,-1.520084 -0.307853,-0.108471 -0.634416,-0.244468 -0.725707,-0.302201 -0.321484,-0.203333 -0.439531,-0.519834 -0.429062,-1.150481 0.0094,-0.559087 0.246561,-1.096974 0.710139,-1.609773 0.159233,-0.176154 0.348519,-0.430977 0.420633,-0.566255 0.16479,-0.309184 0.251607,-0.313825 0.40136,-0.02144 0.0563,0.10995 0.114686,0.199901 0.129712,0.199901 0.01499,0 0.07794,-0.07492 0.13993,-0.166466 0.06192,-0.09158 0.400476,-0.433131 0.752304,-0.759048 1.14811,-1.06356 2.978543,-2.943661 2.978543,-3.059365 0,-0.06889 -1.060824,-1.124071 -1.459281,-1.451539 -1.67992,-1.380643 -3.555963,-2.203791 -5.757183,-2.526076 -0.592103,-0.08668 -2.275905,-0.09936 -2.858601,-0.02144 -2.619117,0.349996 -4.8894341,1.456774 -6.697827,3.265166 -2.6315314,2.631532 -3.8125753,6.357582 -3.1748412,10.016209 0.637193,3.655497 3.0014349,6.760649 6.3582466,8.350815 1.1410426,0.540532 2.4733496,0.912235 3.7343216,1.041853 0.620866,0.06379 2.199952,0.02175 2.833367,-0.07545 z M 13.923745,49.962001 c -0.111511,-0.159214 0.03277,-0.349476 0.22783,-0.300517 0.123342,0.03101 0.175748,0.176195 0.108733,0.301412 -0.06056,0.113185 -0.257008,0.112665 -0.336563,-9.05e-4 z m 41.394442,11.162994 c 2.456503,-0.378029 4.633075,-1.477657 6.377281,-3.221863 1.74999,-1.749986 2.835831,-3.916897 3.225712,-6.437251 0.116393,-0.75245 0.126224,-2.385407 0.01876,-3.118471 -0.203168,-1.386086 -0.561808,-2.514859 -1.183036,-3.723469 -2.492443,-4.849111 -8.073149,-7.240262 -13.331984,-5.712312 -3.678071,1.068659 -6.647413,4.037856 -7.721338,7.720969 -0.324588,1.113197 -0.436168,1.93543 -0.436168,3.214072 0,1.379832 0.135929,2.286134 0.523521,3.49054 1.330664,4.134934 4.929449,7.183455 9.188875,7.783884 0.806769,0.113728 0.789401,0.112792 1.839098,0.09926 0.721015,-0.0094 1.093696,-0.03299 1.499266,-0.09542 z M 53.505276,49.973467 c -0.09357,-0.103436 -0.08219,-0.194416 0.03379,-0.270399 0.0926,-0.06067 0.107312,-0.06067 0.199903,0 0.118069,0.07732 0.128517,0.18532 0.02683,0.27734 -0.09502,0.08596 -0.178421,0.08377 -0.260524,-0.0074 z m -28.03064,0.402943 c 0.05973,-0.795197 -0.04641,-2.019479 -0.259152,-2.988531 -0.125403,-0.571323 -0.466845,-1.65919 -0.52077,-1.65919 -0.03611,0 -1.612676,1.352336 -1.632188,1.40007 -0.0064,0.0154 0.136486,0.259953 0.317312,0.543393 0.218756,0.342909 0.336302,0.568845 0.351297,0.675258 0.02091,0.148682 0.03236,0.160783 0.16246,0.17223 0.146641,0.01291 0.143894,0.0094 0.716351,0.817374 l 0.136642,0.192771 -0.06805,0.142636 c -0.06691,0.140242 -0.06619,0.145758 0.03996,0.328363 0.104883,0.180305 0.637922,0.765436 0.697299,0.765436 0.01624,0 0.04266,-0.175413 0.05879,-0.38981 z M 47.831478,17.30769 c -0.253108,-0.133144 -0.792204,-0.537461 -0.975023,-0.731263 -0.5036,-0.533851 -1.119358,-1.655539 -1.510775,-2.752096 -0.433828,-1.215352 -1.159015,-2.213864 -1.874741,-2.581323 -0.230874,-0.118534 -0.305862,-0.177047 -0.304063,-0.237288 0.0013,-0.04402 0.0878,-0.511759 0.192197,-1.0394909 L 43.548886,9.0066988 43.258771,8.2967363 42.968653,7.5867633 43.121031,7.5090307 C 43.52247,7.3042294 43.696405,7.0361698 43.692286,6.6286381 43.690771,6.4852845 43.661431,6.2894428 43.62695,6.193447 l -0.0627,-0.1745404 0.08981,0.028617 c 0.04939,0.015713 0.201058,0.037774 0.337024,0.049116 0.226024,0.018731 0.256001,0.011758 0.349826,-0.082104 0.08444,-0.084393 0.102629,-0.1402839 0.102629,-0.3151366 0,-0.2423566 -0.112082,-0.68017 -0.259401,-1.0132985 -0.05524,-0.124883 -0.100424,-0.2392037 -0.100424,-0.2540427 0,-0.01488 0.05847,-0.022373 0.129935,-0.01665 0.07147,0.0052 0.39081,0.03049 0.709653,0.055048 3.102995,0.2389955 5.418189,1.0227993 6.662046,2.2554155 0.59971,0.5942994 0.885655,1.1067344 1.113389,1.9953062 0.244613,0.9544106 0.324666,1.9507065 0.215639,2.6837495 -0.07886,0.530188 -0.222483,0.597931 -0.837006,0.394836 -0.175708,-0.05806 -0.325466,-0.09856 -0.332796,-0.0899 -0.0074,0.0084 -0.06826,0.181159 -0.135402,0.383462 -0.105707,0.318498 -0.114256,0.374327 -0.06375,0.416242 0.03209,0.02664 0.09652,0.101979 0.143151,0.167526 0.07377,0.10354 0.07706,0.124894 0.0253,0.16348 -0.03273,0.02435 -0.17048,0.209765 -0.306103,0.411933 l -0.24658,0.367594 0.0419,0.629628 c 0.02305,0.346303 0.03206,0.668869 0.02004,0.716819 -0.03952,0.157476 -0.289629,0.214438 -0.779685,0.177559 -0.197843,-0.01488 -0.224095,-0.0074 -0.296704,0.09033 -0.04594,0.0615 -0.08397,0.182989 -0.08983,0.286904 -0.0058,0.09906 -0.02164,0.198766 -0.03567,0.221461 -0.04867,0.07877 -0.263594,0.163906 -0.484946,0.19218 l -0.222544,0.02841 0.124545,0.156569 c 0.238259,0.299508 0.213147,0.522134 -0.06823,0.604914 -0.236549,0.06962 -0.344267,0.148036 -0.485803,0.353754 -0.253391,0.368289 -0.631727,0.450654 -1.052767,0.229171 z"
       id="path16090" /></g></svg>
