<?xml version="1.0" encoding="UTF-8" standalone="no"?>
<!-- Created with Inkscape (http://www.inkscape.org/) -->

<svg
   width="11in"
   height="8.5in"
   viewBox="0 0 279.4 215.9"
   version="1.1"
   id="svg511"
   sodipodi:docname="kursive_logo_2.svg"
   inkscape:version="1.1.2 (0a00cf5339, 2022-02-04)"
   xmlns:inkscape="http://www.inkscape.org/namespaces/inkscape"
   xmlns:sodipodi="http://sodipodi.sourceforge.net/DTD/sodipodi-0.dtd"
   xmlns="http://www.w3.org/2000/svg"
   xmlns:svg="http://www.w3.org/2000/svg">
  <sodipodi:namedview
     id="namedview23"
     pagecolor="#ffffff"
     bordercolor="#666666"
     borderopacity="1.0"
     inkscape:pageshadow="2"
     inkscape:pageopacity="0.0"
     inkscape:pagecheckerboard="0"
     inkscape:document-units="in"
     showgrid="false"
     inkscape:zoom="0.40318627"
     inkscape:cx="347.23404"
     inkscape:cy="9.9209726"
     inkscape:window-width="1600"
     inkscape:window-height="817"
     inkscape:window-x="0"
     inkscape:window-y="59"
     inkscape:window-maximized="1"
     inkscape:current-layer="svg511" />
  <defs
     id="defs508" />
  <g
     id="layer1">
    <g
       id="g726"
       transform="translate(-1.2491544,-9.3367178)"
       style="fill:none;stroke:#000000;stroke-opacity:1">
      <path
         style="fill:none;stroke:#000000;stroke-width:6.22884;stroke-linecap:round;stroke-linejoin:miter;stroke-miterlimit:4;stroke-dasharray:none;stroke-opacity:1"
         d="m 130.4679,128.92236 c 10.6596,0.0241 18.9705,-7.79568 26.53661,-18.09424"
         id="path819-3-6-3-3-6-2-2-3-3-6" />
      <path
         style="fill:none;stroke:#000000;stroke-width:6.22884;stroke-linecap:round;stroke-linejoin:miter;stroke-miterlimit:4;stroke-dasharray:none;stroke-opacity:1"
         d="m 183.7445,110.83407 c 1.4059,22.68014 33.8944,7.14724 24.9458,0.10356 -10.00199,-7.87273 -23.9355,18.43272 -2.11339,17.97042"
         id="path819-3-6-3-3-62-9-0-6-6-1" />
      <path
         style="fill:none;stroke:#000000;stroke-width:6.22884;stroke-linecap:round;stroke-linejoin:miter;stroke-miterlimit:4;stroke-dasharray:none;stroke-opacity:1"
         d="m 206.57691,128.90805 c 17.40789,-0.36256 43.54719,-29.54639 27.57939,-30.79912 -8.23689,-0.64619 -24.20799,30.58814 -2.688,30.78338"
         id="path819-3-6-6-2-1-2-7-7-8" />
      <path
         style="fill:none;stroke:#000000;stroke-width:6.22884;stroke-linecap:round;stroke-linejoin:miter;stroke-miterlimit:4;stroke-dasharray:none;stroke-opacity:1"
         d="m 157.00111,110.82177 c -14.32831,20.43578 -2.31541,27.22533 13.377,0.26379"
         id="path819-3-6-3-3-7-7-7-5-5-7" />
      <path
         style="fill:none;stroke:#000000;stroke-width:6.22884;stroke-linecap:round;stroke-linejoin:miter;stroke-miterlimit:4;stroke-dasharray:none;stroke-opacity:1"
         d="m 170.3813,110.83407 c -14.31219,20.63266 -2.3116,27.22126 13.36301,0"
         id="path819-3-6-3-3-7-3-9-5-3-3-9" />
      <path
         style="fill:none;stroke:#000000;stroke-width:6.22884;stroke-linecap:round;stroke-linejoin:miter;stroke-miterlimit:4;stroke-dasharray:none;stroke-opacity:1"
         d="m 25.109444,89.40599 c 10.936107,9.576472 6.155125,27.83241 -4.04042,39.46313"
         id="path832-67-2-2-6-2"
         sodipodi:nodetypes="cc" />
      <path
         style="fill:none;stroke:#000000;stroke-width:6.22884;stroke-linecap:round;stroke-linejoin:miter;stroke-miterlimit:4;stroke-dasharray:none;stroke-opacity:1"
         d="m 49.18625,107.73632 c -4.391231,6.9728 -20.174474,9.71546 -19.509181,9.50208"
         id="path832-3-5-2-9-2-0"
         sodipodi:nodetypes="cc" />
      <path
         style="fill:none;stroke:#000000;stroke-width:6.22884;stroke-linecap:round;stroke-linejoin:miter;stroke-miterlimit:4;stroke-dasharray:none;stroke-opacity:1"
         d="M 42.960734,128.31572 C 37.450189,125.39711 41.690785,119.82947 29.677069,117.2384"
         id="path832-6-35-8-1-9-2"
         sodipodi:nodetypes="cc" />
      <path
         style="fill:none;stroke:#000000;stroke-width:6.22884;stroke-linecap:round;stroke-linejoin:miter;stroke-miterlimit:4;stroke-dasharray:none;stroke-opacity:1"
         d="m 128.9283,109.99613 c 22.2392,9.28892 -0.01,30.36478 -9.46339,11.14608"
         id="path832-6-3-7-6-9-2-1-3" />
      <path
         id="path899-7-2-6-3-2"
         style="fill:none;fill-opacity:1;stroke:#000000;stroke-width:6.22884;stroke-linecap:round;stroke-linejoin:round;stroke-miterlimit:4;stroke-dasharray:none;stroke-opacity:1"
         d="m 74.371904,111.08003 a 8.2359258,11.362169 54.734663 0 1 0.2611,12.62335 8.2359258,11.362169 54.734663 0 1 -14.7405,4.14242 8.2359258,11.362169 54.734663 0 1 -0.2611,-12.62333 8.2359258,11.362169 54.734663 0 1 14.7405,-4.14244 z" />
      <path
         style="fill:none;stroke:#000000;stroke-width:6.22884;stroke-linecap:round;stroke-linejoin:miter;stroke-miterlimit:4;stroke-dasharray:none;stroke-opacity:1"
         d="m 94.495558,112.13527 c -8.74016,3.69528 -11.825636,1.93337 -20.123654,-1.05524"
         id="path832-6-3-7-5-2-7-7-2-7"
         sodipodi:nodetypes="cc" />
      <path
         id="path899-9-0-9-0-6-8"
         style="fill:none;fill-opacity:1;stroke:#000000;stroke-width:6.22884;stroke-linecap:round;stroke-linejoin:round;stroke-miterlimit:4;stroke-dasharray:none;stroke-opacity:1"
         d="m 105.9004,111.06442 c 4.1426,2.35802 4.1505,7.92276 0.1521,12.58432 -3.9984,4.66153 -10.597896,6.52891 -14.740496,4.17089 -4.1426,-2.35804 -4.2595,-8.04852 -0.2611,-12.71008 3.9983,-4.66153 10.706896,-6.40318 14.849496,-4.04513 z" />
      <path
         style="fill:none;stroke:#000000;stroke-width:6.22884;stroke-linecap:round;stroke-linejoin:miter;stroke-miterlimit:4;stroke-dasharray:none;stroke-opacity:1"
         d="m 58.905954,115.88944 c -7.6042,9.5617 -10.23276,14.99172 -15.94522,12.42628"
         id="path832-6-3-9-3-6-0-9" />
      <path
         style="fill:none;stroke:#000000;stroke-width:6.22884;stroke-linecap:round;stroke-linejoin:miter;stroke-miterlimit:4;stroke-dasharray:none;stroke-opacity:1"
         d="m 231.4683,128.89452 c 17.408,-0.36256 43.5472,-29.54858 27.5794,-30.8013 -8.2369,-0.64619 -24.2079,30.58811 -2.6879,30.78337"
         id="path819-3-6-6-2-1-2-7-8-6-7"
         sodipodi:nodetypes="csc" />
      <path
         style="fill:none;stroke:#000000;stroke-width:6.22884;stroke-linecap:round;stroke-linejoin:miter;stroke-miterlimit:4;stroke-dasharray:none;stroke-opacity:1"
         d="m 105.9004,111.06442 c 10.9883,6.89465 -3.06925,44.69166 -15.436696,38.72714"
         id="path832-6-3-7-3-9-3-0-7-5-9-6" />
      <path
         style="fill:none;stroke:#000000;stroke-width:6.22884;stroke-linecap:round;stroke-linejoin:miter;stroke-miterlimit:4;stroke-dasharray:none;stroke-opacity:1"
         d="m 115.3791,124.07163 c -18.982296,10.4562 -31.136256,22.28533 -24.915396,25.71993"
         id="path832-6-3-7-56-1-6-9-0-9-2-1" />
      <path
         style="fill:none;stroke:#000000;stroke-width:6.22884;stroke-linecap:round;stroke-linejoin:miter;stroke-miterlimit:4;stroke-dasharray:none;stroke-opacity:1"
         d="m 115.3791,124.07163 c 9.11731,-5.83085 11.84841,-11.95246 14.02161,-16.33531"
         id="path832-6-3-7-2-2-1-3-9-2-2-2"
         sodipodi:nodetypes="cc" />
    </g>
  </g>
</svg>
