<?xml version="1.0" encoding="UTF-8" standalone="no"?>
<svg
   width="164mm"
   height="164mm"
   viewBox="-82 -82 164 164"
   version="1.1"
   id="svg6"
   xmlns="http://www.w3.org/2000/svg"
   xmlns:svg="http://www.w3.org/2000/svg"
   xmlns:rdf="http://www.w3.org/1999/02/22-rdf-syntax-ns#"
   xmlns:cc="http://creativecommons.org/ns#"
   xmlns:dc="http://purl.org/dc/elements/1.1/">
  <defs
     id="defs10" />
  <title
     id="title2">OpenSCAD Model</title>
  <path
     d=" M 3.58231,81.2019 L 3.88124,81.1169 L 4.16324,80.9859 L 4.42137,80.8122 L 4.64928,80.6001 L 4.84132,80.3547  L 4.99281,80.0821 L 5.10001,79.789 L 5.11819,79.6965 L 5.12254,79.6962 L 5.64629,77.4414 L 5.65242,77.4428  L 5.74359,77.0947 L 5.92929,76.6322 L 6.17151,76.1967 L 6.46642,75.7949 L 6.80934,75.4332 L 7.1949,75.1174  L 7.617,74.8523 L 8.06898,74.6423 L 8.54373,74.4906 L 9.03374,74.3996 L 9.53128,74.3707 L 10.0285,74.4044  L 10.5177,74.5001 L 10.9909,74.6564 L 11.4409,74.8708 L 11.8604,75.1399 L 12.2429,75.4595 L 12.5823,75.8244  L 12.8733,76.229 L 13.0451,76.5452 L 13.0507,76.5424 L 14.0988,78.6063 L 14.1031,78.6056 L 14.1429,78.691  L 14.3172,78.9499 L 14.5295,79.1783 L 14.7747,79.3706 L 15.0467,79.522 L 15.3389,79.6289 L 15.6441,79.6886  L 15.9547,79.6996 L 16.263,79.6616 L 16.5616,79.5757 L 16.843,79.4438 L 17.1004,79.2693 L 17.3273,79.0565  L 17.5182,78.8105 L 17.6684,78.5375 L 17.7742,78.2442 L 17.833,77.9377 L 17.8361,77.8435 L 17.8404,77.8424  L 17.9957,75.5328 L 18.0019,75.5332 L 18.0361,75.175 L 18.1452,74.6887 L 18.3144,74.2199 L 18.541,73.776  L 18.8215,73.364 L 19.1514,72.9905 L 19.5255,72.6612 L 19.938,72.3814 L 20.3822,72.1554 L 20.8513,71.987  L 21.3378,71.8787 L 21.834,71.8322 L 22.3321,71.8482 L 22.8243,71.9266 L 23.3028,72.066 L 23.7601,72.2643  L 24.1889,72.5184 L 24.5824,72.8242 L 24.9346,73.1769 L 25.1549,73.4614 L 25.16,73.4577 L 26.5256,75.3267  L 26.5297,75.3253 L 26.5827,75.4033 L 26.7962,75.6309 L 27.0424,75.8223 L 27.3153,75.9727 L 27.6081,76.0786  L 27.9137,76.1372 L 28.2244,76.1472 L 28.5328,76.1082 L 28.8311,76.0213 L 29.112,75.8885 L 29.3686,75.7132  L 29.5946,75.4997 L 29.7845,75.2532 L 29.9335,74.9798 L 30.0379,74.6862 L 30.0953,74.3797 L 30.1042,74.0678  L 30.0921,73.9743 L 30.0962,73.9726 L 29.8789,71.668 L 29.8852,71.6674 L 29.8615,71.3083 L 29.8911,70.8108  L 29.9829,70.321 L 30.1354,69.8465 L 30.3462,69.3948 L 30.6119,68.9732 L 30.9283,68.5881 L 31.2906,68.2458  L 31.6928,67.9515 L 32.1288,67.71 L 32.5916,67.525 L 33.0739,67.3995 L 33.5682,67.3355 L 34.0666,67.3339  L 34.5613,67.3947 L 35.0444,67.5172 L 35.5084,67.6991 L 35.9459,67.9378 L 36.3501,68.2295 L 36.6132,68.4749  L 36.6176,68.4705 L 38.2654,70.0963 L 38.2692,70.0942 L 38.334,70.1627 L 38.5813,70.3531 L 38.855,70.5025  L 39.1485,70.6073 L 39.4545,70.6647 L 39.7655,70.6736 L 40.0738,70.6336 L 40.3719,70.5456 L 40.6524,70.412  L 40.9084,70.2359 L 41.1336,70.0217 L 41.3224,69.7747 L 41.4702,69.5009 L 41.5734,69.2072 L 41.6295,68.9007  L 41.6369,68.5889 L 41.5957,68.2796 L 41.5688,68.1892 L 41.5724,68.1869 L 40.9884,65.947 L 40.9945,65.9454  L 40.9134,65.5948 L 40.8629,65.099 L 40.875,64.6007 L 40.9494,64.1079 L 41.0849,63.6283 L 41.2795,63.1695  L 41.5301,62.7386 L 41.8327,62.3426 L 42.1826,61.9877 L 42.5742,61.6794 L 43.0013,61.4225 L 43.4573,61.2213  L 43.9349,61.0788 L 44.4266,60.9973 L 44.9246,60.978 L 45.4211,61.0213 L 45.9083,61.1265 L 46.3784,61.2919  L 46.8241,61.515 L 47.1232,61.715 L 47.1268,61.7099 L 49.0141,63.0503 L 49.0175,63.0477 L 49.0925,63.1049  L 49.3671,63.2532 L 49.6612,63.3567 L 49.9677,63.413 L 50.2789,63.4207 L 50.5873,63.3796 L 50.8853,63.2906  L 51.1654,63.156 L 51.4208,62.9791 L 51.6452,62.7642 L 51.8332,62.5166 L 51.9799,62.2426 L 52.0819,61.9486  L 52.1367,61.6421 L 52.1428,61.3306 L 52.1002,61.0217 L 52.0098,60.723 L 51.9688,60.6381 L 51.972,60.6352  L 51.0362,58.518 L 51.042,58.5155 L 50.9057,58.1824 L 50.7764,57.7011 L 50.7083,57.2074 L 50.7027,56.709  L 50.7596,56.2139 L 50.8781,55.7298 L 51.0563,55.2643 L 51.2915,54.8249 L 51.5799,54.4184 L 51.9169,54.0512  L 52.2973,53.7292 L 52.7151,53.4575 L 53.1637,53.2402 L 53.6359,53.0808 L 54.1244,52.9819 L 54.6214,52.945  L 55.1192,52.9707 L 55.6097,53.0586 L 56.0854,53.2072 L 56.4128,53.3568 L 56.4155,53.3511 L 58.4933,54.3714  L 58.4963,54.3683 L 58.5795,54.4127 L 58.8743,54.515 L 59.1812,54.5701 L 59.4928,54.5765 L 59.8013,54.5341  L 60.099,54.444 L 60.3788,54.3084 L 60.6337,54.1306 L 60.8575,53.915 L 61.0445,53.6669 L 61.1903,53.3925  L 61.2912,53.0984 L 61.3448,52.7919 L 61.3496,52.4805 L 61.3057,52.1721 L 61.2141,51.874 L 61.077,51.5937  L 61.0228,51.5165 L 61.0256,51.5131 L 59.7623,49.5734 L 59.7675,49.57 L 59.5797,49.2631 L 59.3747,48.8088  L 59.2284,48.3324 L 59.1429,47.8413 L 59.1196,47.3435 L 59.1589,46.8466 L 59.2602,46.3586 L 59.4218,45.8872  L 59.6413,45.4397 L 59.915,45.0232 L 60.2389,44.6444 L 60.6077,44.3091 L 61.0155,44.0227 L 61.4561,43.7896  L 61.9224,43.6137 L 62.4071,43.4975 L 62.9025,43.443 L 63.4008,43.451 L 63.8942,43.5215 L 64.2412,43.6166  L 64.2431,43.6105 L 66.4576,44.2843 L 66.4601,44.2808 L 66.5493,44.3113 L 66.8567,44.365 L 67.1685,44.3701  L 67.4771,44.3264 L 67.7747,44.2351 L 68.0542,44.0984 L 68.3086,43.9197 L 68.5317,43.7033 L 68.718,43.4546  L 68.8628,43.1797 L 68.9627,42.8854 L 69.0151,42.5789 L 69.0188,42.2678 L 68.9736,41.9598 L 68.8808,41.6623  L 68.7425,41.3828 L 68.5622,41.1281 L 68.4964,41.0606 L 68.4986,41.0568 L 66.9405,39.3449 L 66.9451,39.3407  L 66.7105,39.0679 L 66.4353,38.6523 L 66.2144,38.2056 L 66.0513,37.7346 L 65.9484,37.2469 L 65.9075,36.7502  L 65.9292,36.2523 L 66.0131,35.761 L 66.1579,35.2841 L 66.3614,34.8291 L 66.6203,34.4033 L 66.9305,34.0132  L 67.2871,33.665 L 67.6846,33.3643 L 68.1166,33.1158 L 68.5764,32.9234 L 69.0567,32.7902 L 69.5498,32.7182  L 70.0481,32.7085 L 70.4059,32.7467 L 70.4068,32.7405 L 72.7007,33.0503 L 72.7026,33.0464 L 72.7956,33.0622  L 73.1076,33.0659 L 73.4162,33.0209 L 73.7137,32.9283 L 73.9929,32.7905 L 74.2468,32.6107 L 74.4693,32.3935  L 74.6548,32.1441 L 74.7987,31.8687 L 74.8976,31.5742 L 74.9489,31.2677 L 74.9515,30.9568 L 74.9052,30.6491  L 74.8113,30.3522 L 74.6719,30.0735 L 74.4906,29.8198 L 74.2718,29.5974 L 74.196,29.5413 L 74.1975,29.5372  L 72.385,28.0974 L 72.3889,28.0925 L 72.1135,27.8609 L 71.7753,27.4948 L 71.4856,27.0893 L 71.249,26.6506  L 71.0693,26.1857 L 70.9492,25.702 L 70.8907,25.207 L 70.8947,24.7087 L 70.9612,24.2147 L 71.089,23.733  L 71.2762,23.2711 L 71.5198,22.8363 L 71.816,22.4355 L 72.1601,22.0749 L 72.5467,21.7603 L 72.9697,21.4967  L 73.4223,21.2881 L 73.8975,21.1379 L 74.3878,21.0484 L 74.7471,21.0287 L 74.747,21.0225 L 77.0609,20.9603  L 77.0621,20.9561 L 77.1564,20.9568 L 77.465,20.9104 L 77.7624,20.8165 L 78.0412,20.6774 L 78.2946,20.4965  L 78.5165,20.2784 L 78.7012,20.0283 L 78.8443,19.7524 L 78.9422,19.4575 L 78.9925,19.1509 L 78.994,18.8401  L 78.9467,18.5328 L 78.8517,18.2365 L 78.7113,17.9586 L 78.5291,17.7059 L 78.3094,17.4845 L 78.0577,17.3  L 77.9739,17.2568 L 77.9748,17.2526 L 75.9548,16.1222 L 75.9579,16.1167 L 75.6489,15.9323 L 75.2563,15.6252  L 74.9053,15.2714 L 74.6014,14.8763 L 74.3494,14.4463 L 74.1533,13.9881 L 74.0162,13.5089 L 73.9402,13.0164  L 73.9266,12.5182 L 73.9755,12.0222 L 74.0862,11.5362 L 74.2569,11.068 L 74.4849,10.6248 L 74.7667,10.2137  L 75.0978,9.8412 L 75.473,9.51312 L 75.8864,9.23463 L 76.3313,9.01016 L 76.8009,8.84323 L 77.1524,8.76616  L 77.1512,8.75996 L 79.4253,8.32744 L 79.4258,8.3231 L 79.519,8.30864 L 79.8161,8.21335 L 80.0946,8.07295  L 80.3475,7.89095 L 80.5686,7.67177 L 80.7526,7.42084 L 80.8948,7.14433 L 80.9918,6.84908 L 81.0411,6.54231  L 81.0416,6.2316 L 80.9933,5.92461 L 80.8972,5.62888 L 80.7559,5.35168 L 80.5728,5.09987 L 80.3524,4.87964  L 80.1,4.69641 L 79.822,4.55467 L 79.7324,4.52545 L 79.7326,4.5211 L 77.5574,3.7294 L 77.5595,3.72348  L 77.2249,3.59102 L 76.7882,3.35092 L 76.385,3.05797 L 76.0217,2.71678 L 75.704,2.33276 L 75.4369,1.91196  L 75.2247,1.46098 L 75.0707,0.986984 L 74.9773,0.497406 L 74.946,-0 L 74.9773,-0.497406 L 75.0707,-0.986984  L 75.2247,-1.46098 L 75.4369,-1.91196 L 75.704,-2.33276 L 76.0217,-2.71678 L 76.385,-3.05797 L 76.7882,-3.35092  L 77.2249,-3.59102 L 77.5595,-3.72348 L 77.5574,-3.7294 L 79.7326,-4.5211 L 79.7324,-4.52545 L 79.822,-4.55467  L 80.1,-4.69641 L 80.3524,-4.87964 L 80.5728,-5.09987 L 80.7559,-5.35168 L 80.8972,-5.62888 L 80.9933,-5.92461  L 81.0416,-6.2316 L 81.0411,-6.54231 L 80.9918,-6.84908 L 80.8948,-7.14433 L 80.7526,-7.42084 L 80.5686,-7.67177  L 80.3475,-7.89095 L 80.0946,-8.07295 L 79.8161,-8.21335 L 79.519,-8.30864 L 79.4258,-8.3231 L 79.4253,-8.32744  L 77.1512,-8.75996 L 77.1524,-8.76616 L 76.8009,-8.84323 L 76.3313,-9.01016 L 75.8864,-9.23463 L 75.473,-9.51312  L 75.0978,-9.8412 L 74.7667,-10.2137 L 74.4849,-10.6248 L 74.2569,-11.068 L 74.0862,-11.5362 L 73.9755,-12.0222  L 73.9266,-12.5182 L 73.9402,-13.0164 L 74.0162,-13.5089 L 74.1533,-13.9881 L 74.3494,-14.4463 L 74.6014,-14.8763  L 74.9053,-15.2714 L 75.2563,-15.6252 L 75.6489,-15.9323 L 75.9579,-16.1167 L 75.9548,-16.1222 L 77.9748,-17.2526  L 77.9739,-17.2568 L 78.0577,-17.3 L 78.3094,-17.4845 L 78.5291,-17.7059 L 78.7113,-17.9586 L 78.8517,-18.2365  L 78.9467,-18.5328 L 78.994,-18.8401 L 78.9925,-19.1509 L 78.9422,-19.4575 L 78.8443,-19.7524 L 78.7012,-20.0283  L 78.5165,-20.2784 L 78.2946,-20.4965 L 78.0412,-20.6774 L 77.7624,-20.8165 L 77.465,-20.9104 L 77.1564,-20.9568  L 77.0621,-20.9561 L 77.0609,-20.9603 L 74.747,-21.0225 L 74.7471,-21.0287 L 74.3878,-21.0484 L 73.8975,-21.1379  L 73.4223,-21.2881 L 72.9697,-21.4967 L 72.5467,-21.7603 L 72.1601,-22.0749 L 71.816,-22.4355 L 71.5198,-22.8363  L 71.2762,-23.2711 L 71.089,-23.733 L 70.9612,-24.2147 L 70.8947,-24.7087 L 70.8907,-25.207 L 70.9492,-25.702  L 71.0693,-26.1857 L 71.249,-26.6506 L 71.4856,-27.0893 L 71.7753,-27.4948 L 72.1135,-27.8609 L 72.3889,-28.0925  L 72.385,-28.0974 L 74.1975,-29.5372 L 74.196,-29.5413 L 74.2718,-29.5974 L 74.4906,-29.8198 L 74.6719,-30.0735  L 74.8113,-30.3522 L 74.9052,-30.6491 L 74.9515,-30.9568 L 74.9489,-31.2677 L 74.8976,-31.5742 L 74.7987,-31.8687  L 74.6548,-32.1441 L 74.4693,-32.3935 L 74.2468,-32.6107 L 73.9929,-32.7905 L 73.7137,-32.9283 L 73.4162,-33.0209  L 73.1076,-33.0659 L 72.7956,-33.0622 L 72.7026,-33.0464 L 72.7007,-33.0503 L 70.4068,-32.7405 L 70.4059,-32.7467  L 70.0481,-32.7085 L 69.5498,-32.7182 L 69.0567,-32.7902 L 68.5764,-32.9234 L 68.1166,-33.1158 L 67.6846,-33.3643  L 67.2871,-33.665 L 66.9305,-34.0132 L 66.6203,-34.4033 L 66.3614,-34.8291 L 66.1579,-35.2841 L 66.0131,-35.761  L 65.9292,-36.2523 L 65.9075,-36.7502 L 65.9484,-37.2469 L 66.0513,-37.7346 L 66.2144,-38.2056 L 66.4353,-38.6523  L 66.7105,-39.0679 L 66.9451,-39.3407 L 66.9405,-39.3449 L 68.4986,-41.0568 L 68.4964,-41.0606 L 68.5622,-41.1281  L 68.7425,-41.3828 L 68.8808,-41.6623 L 68.9736,-41.9598 L 69.0188,-42.2678 L 69.0151,-42.5789 L 68.9627,-42.8854  L 68.8628,-43.1797 L 68.718,-43.4546 L 68.5317,-43.7033 L 68.3086,-43.9197 L 68.0542,-44.0984 L 67.7747,-44.2351  L 67.4771,-44.3264 L 67.1685,-44.3701 L 66.8567,-44.365 L 66.5493,-44.3113 L 66.4601,-44.2808 L 66.4576,-44.2843  L 64.2431,-43.6105 L 64.2412,-43.6166 L 63.8942,-43.5215 L 63.4008,-43.451 L 62.9025,-43.443 L 62.4071,-43.4975  L 61.9224,-43.6137 L 61.4561,-43.7896 L 61.0155,-44.0227 L 60.6077,-44.3091 L 60.2389,-44.6444 L 59.915,-45.0232  L 59.6413,-45.4397 L 59.4218,-45.8872 L 59.2602,-46.3586 L 59.1589,-46.8466 L 59.1196,-47.3435 L 59.1429,-47.8413  L 59.2284,-48.3324 L 59.3747,-48.8088 L 59.5797,-49.2631 L 59.7675,-49.57 L 59.7623,-49.5734 L 61.0256,-51.5131  L 61.0228,-51.5165 L 61.077,-51.5937 L 61.2141,-51.874 L 61.3057,-52.1721 L 61.3496,-52.4805 L 61.3448,-52.7919  L 61.2912,-53.0984 L 61.1903,-53.3925 L 61.0445,-53.6669 L 60.8575,-53.915 L 60.6337,-54.1306 L 60.3788,-54.3084  L 60.099,-54.444 L 59.8013,-54.5341 L 59.4928,-54.5765 L 59.1812,-54.5701 L 58.8743,-54.515 L 58.5795,-54.4127  L 58.4963,-54.3683 L 58.4933,-54.3714 L 56.4155,-53.3511 L 56.4128,-53.3568 L 56.0854,-53.2072 L 55.6097,-53.0586  L 55.1192,-52.9707 L 54.6214,-52.945 L 54.1244,-52.9819 L 53.6359,-53.0808 L 53.1637,-53.2402 L 52.7151,-53.4575  L 52.2973,-53.7292 L 51.9169,-54.0512 L 51.5799,-54.4184 L 51.2915,-54.8249 L 51.0563,-55.2643 L 50.8781,-55.7298  L 50.7596,-56.2139 L 50.7027,-56.709 L 50.7083,-57.2074 L 50.7764,-57.7011 L 50.9057,-58.1824 L 51.042,-58.5155  L 51.0362,-58.518 L 51.972,-60.6352 L 51.9688,-60.6381 L 52.0098,-60.723 L 52.1002,-61.0217 L 52.1428,-61.3306  L 52.1367,-61.6421 L 52.0819,-61.9486 L 51.9799,-62.2426 L 51.8332,-62.5166 L 51.6452,-62.7642 L 51.4208,-62.9791  L 51.1654,-63.156 L 50.8853,-63.2906 L 50.5873,-63.3796 L 50.2789,-63.4207 L 49.9677,-63.413 L 49.6612,-63.3567  L 49.3671,-63.2532 L 49.0925,-63.1049 L 49.0175,-63.0477 L 49.0141,-63.0503 L 47.1268,-61.7099 L 47.1232,-61.715  L 46.8241,-61.515 L 46.3784,-61.2919 L 45.9083,-61.1265 L 45.4211,-61.0213 L 44.9246,-60.978 L 44.4266,-60.9973  L 43.9349,-61.0788 L 43.4573,-61.2213 L 43.0013,-61.4225 L 42.5742,-61.6794 L 42.1826,-61.9877 L 41.8327,-62.3426  L 41.5301,-62.7386 L 41.2795,-63.1695 L 41.0849,-63.6283 L 40.9494,-64.1079 L 40.875,-64.6007 L 40.8629,-65.099  L 40.9134,-65.5948 L 40.9945,-65.9454 L 40.9884,-65.947 L 41.5724,-68.1869 L 41.5688,-68.1892 L 41.5957,-68.2796  L 41.6369,-68.5889 L 41.6295,-68.9007 L 41.5734,-69.2072 L 41.4702,-69.5009 L 41.3224,-69.7747 L 41.1336,-70.0217  L 40.9084,-70.2359 L 40.6524,-70.412 L 40.3719,-70.5456 L 40.0738,-70.6336 L 39.7655,-70.6736 L 39.4545,-70.6647  L 39.1485,-70.6073 L 38.855,-70.5025 L 38.5813,-70.3531 L 38.334,-70.1627 L 38.2692,-70.0942 L 38.2654,-70.0963  L 36.6176,-68.4705 L 36.6132,-68.4749 L 36.3501,-68.2295 L 35.9459,-67.9378 L 35.5084,-67.6991 L 35.0444,-67.5172  L 34.5613,-67.3947 L 34.0666,-67.3339 L 33.5682,-67.3355 L 33.0739,-67.3995 L 32.5916,-67.525 L 32.1288,-67.71  L 31.6928,-67.9515 L 31.2906,-68.2458 L 30.9283,-68.5881 L 30.6119,-68.9732 L 30.3462,-69.3948 L 30.1354,-69.8465  L 29.9829,-70.321 L 29.8911,-70.8108 L 29.8615,-71.3083 L 29.8852,-71.6674 L 29.8789,-71.668 L 30.0962,-73.9726  L 30.0921,-73.9743 L 30.1042,-74.0678 L 30.0953,-74.3797 L 30.0379,-74.6862 L 29.9335,-74.9798 L 29.7845,-75.2532  L 29.5946,-75.4997 L 29.3686,-75.7132 L 29.112,-75.8885 L 28.8311,-76.0213 L 28.5328,-76.1082 L 28.2244,-76.1472  L 27.9137,-76.1372 L 27.6081,-76.0786 L 27.3153,-75.9727 L 27.0424,-75.8223 L 26.7962,-75.6309 L 26.5827,-75.4033  L 26.5297,-75.3253 L 26.5256,-75.3267 L 25.16,-73.4577 L 25.1549,-73.4614 L 24.9346,-73.1769 L 24.5824,-72.8242  L 24.1889,-72.5184 L 23.7601,-72.2643 L 23.3028,-72.066 L 22.8243,-71.9266 L 22.3321,-71.8482 L 21.834,-71.8322  L 21.3378,-71.8787 L 20.8513,-71.987 L 20.3822,-72.1554 L 19.938,-72.3814 L 19.5255,-72.6612 L 19.1514,-72.9905  L 18.8215,-73.364 L 18.541,-73.776 L 18.3144,-74.2199 L 18.1452,-74.6887 L 18.0361,-75.175 L 18.0019,-75.5332  L 17.9957,-75.5328 L 17.8404,-77.8424 L 17.8361,-77.8435 L 17.833,-77.9377 L 17.7742,-78.2442 L 17.6684,-78.5375  L 17.5182,-78.8105 L 17.3273,-79.0565 L 17.1004,-79.2693 L 16.843,-79.4438 L 16.5616,-79.5757 L 16.263,-79.6616  L 15.9547,-79.6996 L 15.6441,-79.6886 L 15.3389,-79.6289 L 15.0467,-79.522 L 14.7747,-79.3706 L 14.5295,-79.1783  L 14.3172,-78.9499 L 14.1429,-78.691 L 14.1031,-78.6056 L 14.0988,-78.6063 L 13.0507,-76.5424 L 13.0451,-76.5452  L 12.8733,-76.229 L 12.5823,-75.8244 L 12.2429,-75.4595 L 11.8604,-75.1399 L 11.4409,-74.8708 L 10.9909,-74.6564  L 10.5177,-74.5001 L 10.0285,-74.4044 L 9.53128,-74.3707 L 9.03374,-74.3996 L 8.54373,-74.4906 L 8.06898,-74.6423  L 7.617,-74.8523 L 7.1949,-75.1174 L 6.80934,-75.4332 L 6.46642,-75.7949 L 6.17151,-76.1967 L 5.92929,-76.6322  L 5.74359,-77.0947 L 5.65242,-77.4428 L 5.64629,-77.4414 L 5.12254,-79.6962 L 5.11819,-79.6965 L 5.10001,-79.789  L 4.99281,-80.0821 L 4.84132,-80.3547 L 4.64928,-80.6001 L 4.42137,-80.8122 L 4.16324,-80.9859 L 3.88124,-81.1169  L 3.58231,-81.2019 L 3.2738,-81.2388 L 2.96333,-81.2268 L 2.65852,-81.1661 L 2.3669,-81.0583 L 2.09563,-80.9059  L 1.85139,-80.7128 L 1.64021,-80.4837 L 1.46729,-80.2242 L 1.33687,-79.9407 L 1.31128,-79.8499 L 1.30693,-79.8499  L 0.603455,-77.6446 L 0.597443,-77.6465 L 0.478561,-77.3069 L 0.256241,-76.8609 L -0.0202179,-76.4462 L -0.346497,-76.0694  L -0.717407,-75.7365 L -1.12712,-75.4527 L -1.56918,-75.2225 L -2.03661,-75.0496 L -2.52202,-74.9365 L -3.01776,-74.8852  L -3.51602,-74.8965 L -4.00897,-74.9701 L -4.48878,-75.1049 L -4.94794,-75.2988 L -5.37915,-75.5486 L -5.77565,-75.8506  L -6.1312,-76.1999 L -6.44014,-76.591 L -6.69763,-77.0177 L -6.84346,-77.3467 L -6.84929,-77.3443 L -7.72794,-79.4858  L -7.73228,-79.4855 L -7.76509,-79.5739 L -7.91789,-79.846 L -8.11115,-80.0907 L -8.34007,-80.3021 L -8.59906,-80.4749  L -8.88171,-80.605 L -9.18106,-80.689 L -9.48976,-80.725 L -9.8002,-80.7119 L -10.1047,-80.6503 L -10.3958,-80.5415  L -10.6664,-80.3883 L -10.9097,-80.1944 L -11.1198,-79.9646 L -11.2915,-79.7045 L -11.4206,-79.4207 L -11.5038,-79.1199  L -11.5145,-79.0262 L -11.5188,-79.0255 L -11.8594,-76.7359 L -11.8657,-76.7369 L -11.9285,-76.3826 L -12.0764,-75.9066  L -12.2828,-75.453 L -12.5444,-75.0287 L -12.8571,-74.6407 L -13.216,-74.2948 L -13.6154,-73.9967 L -14.049,-73.751  L -14.51,-73.5616 L -14.9911,-73.4314 L -15.4847,-73.3626 L -15.9831,-73.3561 L -16.4783,-73.4122 L -16.9626,-73.53  L -17.4284,-73.7074 L -17.8682,-73.9419 L -18.2751,-74.2296 L -18.6428,-74.5661 L -18.9654,-74.946 L -19.1621,-75.2473  L -19.1675,-75.244 L -20.3783,-77.2169 L -20.3825,-77.2158 L -20.4291,-77.2978 L -20.6236,-77.5419 L -20.8536,-77.7524  L -21.1134,-77.9244 L -21.3968,-78.0534 L -21.6966,-78.1364 L -22.0056,-78.1714 L -22.3161,-78.1573 L -22.6204,-78.0947  L -22.9111,-77.985 L -23.181,-77.8309 L -23.4235,-77.6363 L -23.6325,-77.4058 L -23.803,-77.1453 L -23.9308,-76.8611  L -24.0126,-76.5602 L -24.0466,-76.25 L -24.0421,-76.1558 L -24.0462,-76.1544 L -24.0152,-73.8399 L -24.0215,-73.8398  L -24.0267,-73.48 L -24.0963,-72.9865 L -24.2272,-72.5056 L -24.4174,-72.0449 L -24.6638,-71.6116 L -24.9626,-71.2127  L -25.309,-70.8544 L -25.6976,-70.5423 L -26.1222,-70.2814 L -26.5762,-70.0757 L -27.0524,-69.9286 L -27.5433,-69.8423  L -28.0411,-69.8183 L -28.538,-69.8568 L -29.0262,-69.9572 L -29.4979,-70.1181 L -29.9457,-70.3368 L -30.3626,-70.61  L -30.742,-70.9332 L -30.9845,-71.199 L -30.9893,-71.1949 L -32.5009,-72.948 L -32.5049,-72.9463 L -32.564,-73.0198  L -32.7951,-73.2295 L -33.0559,-73.4004 L -33.34,-73.5284 L -33.6404,-73.6104 L -33.9496,-73.6442 L -34.2602,-73.6291  L -34.5644,-73.5655 L -34.8547,-73.4548 L -35.1241,-73.2999 L -35.3658,-73.1045 L -35.5739,-72.8735 L -35.7433,-72.6125  L -35.8698,-72.328 L -35.9503,-72.027 L -35.9828,-71.7169 L -35.9665,-71.4053 L -35.947,-71.313 L -35.9509,-71.311  L -35.5489,-69.0313 L -35.5551,-69.0302 L -35.5026,-68.6743 L -35.4921,-68.176 L -35.5442,-67.6803 L -35.658,-67.1951  L -35.8317,-66.7279 L -36.0627,-66.2863 L -36.3471,-65.877 L -36.6806,-65.5066 L -37.0579,-65.181 L -37.473,-64.9051  L -37.9194,-64.6835 L -38.3901,-64.5196 L -38.8776,-64.416 L -39.3743,-64.3743 L -39.8722,-64.3952 L -40.3636,-64.4783  L -40.8408,-64.6223 L -41.2961,-64.8251 L -41.7224,-65.0833 L -42.0044,-65.3068 L -42.0084,-65.3019 L -43.7817,-66.7899  L -43.7854,-66.7875 L -43.8555,-66.8506 L -44.1172,-67.0204 L -44.4021,-67.1474 L -44.703,-67.2281 L -45.0127,-67.2608  L -45.3234,-67.2446 L -45.6275,-67.1799 L -45.9175,-67.0683 L -46.1864,-66.9125 L -46.4274,-66.7164 L -46.6346,-66.4848  L -46.8029,-66.2234 L -46.9283,-65.9386 L -47.0075,-65.6375 L -47.0387,-65.3274 L -47.021,-65.0161 L -46.955,-64.7111  L -46.9209,-64.6232 L -46.9244,-64.6206 L -46.162,-62.435 L -46.1679,-62.4329 L -46.0589,-62.09 L -45.9687,-61.5998  L -45.9406,-61.1022 L -45.9751,-60.605 L -46.0717,-60.116 L -46.2287,-59.643 L -46.4438,-59.1934 L -46.7136,-58.7744  L -47.0338,-58.3924 L -47.3992,-58.0535 L -47.8043,-57.7632 L -48.2426,-57.5259 L -48.7072,-57.3454 L -49.1907,-57.2246  L -49.6856,-57.1653 L -50.184,-57.1685 L -50.678,-57.2342 L -51.16,-57.3612 L -51.6222,-57.5477 L -51.9364,-57.7231  L -51.9396,-57.7177 L -53.9286,-58.9019 L -53.9318,-58.899 L -54.0112,-58.95 L -54.2968,-59.0757 L -54.5983,-59.1552  L -54.9083,-59.1867 L -55.2192,-59.1693 L -55.5232,-59.1035 L -55.813,-58.9908 L -56.0814,-58.8341 L -56.3218,-58.6372  L -56.5282,-58.405 L -56.6956,-58.1431 L -56.8198,-57.8581 L -56.8979,-57.5569 L -56.9277,-57.247 L -56.9088,-56.9359  L -56.8414,-56.6315 L -56.7273,-56.341 L -56.6796,-56.2597 L -56.6826,-56.2566 L -55.5795,-54.2215 L -55.585,-54.2185  L -55.4224,-53.8975 L -55.2547,-53.4282 L -55.1472,-52.9415 L -55.1015,-52.4452 L -55.1183,-51.9471 L -55.1975,-51.455  L -55.3377,-50.9768 L -55.5367,-50.5199 L -55.7915,-50.0915 L -56.0979,-49.6984 L -56.4512,-49.3468 L -56.8457,-49.0423  L -57.2753,-48.7896 L -57.7332,-48.5928 L -58.2121,-48.4549 L -58.7046,-48.3781 L -59.2028,-48.3637 L -59.6989,-48.4118  L -60.185,-48.5217 L -60.5233,-48.6444 L -60.5256,-48.6385 L -62.6787,-49.4884 L -62.6815,-49.485 L -62.768,-49.5226  L -63.07,-49.6008 L -63.3804,-49.631 L -63.6915,-49.6123 L -63.9955,-49.5453 L -64.2851,-49.4315 L -64.5531,-49.2738  L -64.7928,-49.0761 L -64.9985,-48.8432 L -65.165,-48.5809 L -65.2882,-48.2955 L -65.3651,-47.9943 L -65.3938,-47.6845  L -65.3736,-47.3738 L -65.305,-47.0698 L -65.1897,-46.7801 L -65.0305,-46.5117 L -64.9703,-46.4391 L -64.9728,-46.4355  L -63.5575,-44.6038 L -63.5625,-44.6 L -63.3505,-44.3092 L -63.1097,-43.8728 L -62.9254,-43.4097 L -62.8007,-42.9272  L -62.7375,-42.4328 L -62.7367,-41.9344 L -62.7983,-41.4398 L -62.9215,-40.9569 L -63.1042,-40.4932 L -63.3436,-40.0561  L -63.6359,-39.6524 L -63.9765,-39.2885 L -64.36,-38.9702 L -64.7804,-38.7025 L -65.231,-38.4895 L -65.7048,-38.3348  L -66.1942,-38.2406 L -66.6916,-38.2085 L -67.189,-38.239 L -67.5426,-38.3059 L -67.5439,-38.2997 L -69.8055,-38.7931  L -69.8077,-38.7894 L -69.8991,-38.8126 L -70.2098,-38.8414 L -70.521,-38.8214 L -70.825,-38.753 L -71.1144,-38.6381  L -71.382,-38.4793 L -71.6212,-38.2807 L -71.8261,-38.0471 L -71.9918,-37.7842 L -72.114,-37.4986 L -72.1899,-37.1972  L -72.2175,-36.8875 L -72.1961,-36.5771 L -72.1263,-36.2736 L -72.0099,-35.9846 L -71.8495,-35.7171 L -71.6494,-35.4778  L -71.5783,-35.4158 L -71.5802,-35.4118 L -69.8894,-33.8309 L -69.8937,-33.8263 L -69.6378,-33.5733 L -69.3301,-33.1812  L -69.074,-32.7536 L -68.8735,-32.2973 L -68.7317,-31.8195 L -68.651,-31.3277 L -68.6325,-30.8296 L -68.6766,-30.3332  L -68.7826,-29.8462 L -68.9488,-29.3763 L -69.1725,-28.931 L -69.4504,-28.5172 L -69.7778,-28.1415 L -70.1498,-27.8098  L -70.5605,-27.5273 L -71.0033,-27.2986 L -71.4712,-27.1271 L -71.957,-27.0156 L -72.4529,-26.9659 L -72.8126,-26.9752  L -72.813,-26.9689 L -75.1244,-27.0932 L -75.126,-27.0891 L -75.2199,-27.0974 L -75.5312,-27.0759 L -75.8352,-27.0063  L -76.1243,-26.8901 L -76.3915,-26.7302 L -76.6301,-26.5306 L -76.8344,-26.2961 L -76.9992,-26.0327 L -77.1205,-25.7466  L -77.1954,-25.4451 L -77.2219,-25.1354 L -77.1994,-24.8253 L -77.1286,-24.5223 L -77.011,-24.234 L -76.8497,-23.9674  L -76.6485,-23.7291 L -76.4126,-23.525 L -76.3325,-23.4752 L -76.3337,-23.471 L -74.4112,-22.1817 L -74.4147,-22.1765  L -74.1216,-21.9678 L -73.7549,-21.6302 L -73.4335,-21.2492 L -73.1624,-20.831 L -72.9459,-20.3821 L -72.7873,-19.9096  L -72.6892,-19.421 L -72.6531,-18.9239 L -72.6796,-18.4262 L -72.7682,-17.9357 L -72.9176,-17.4603 L -73.1255,-17.0073  L -73.3884,-16.5839 L -73.7024,-16.1968 L -74.0624,-15.8522 L -74.4628,-15.5553 L -74.8972,-15.311 L -75.3588,-15.1231  L -75.8403,-14.9945 L -76.1969,-14.9459 L -76.1962,-14.9397 L -78.4977,-14.6915 L -78.4985,-14.6872 L -78.5926,-14.6803  L -78.8964,-14.6092 L -79.1852,-14.4917 L -79.452,-14.3306 L -79.69,-14.13 L -79.8936,-13.8947 L -80.0576,-13.6305  L -80.178,-13.344 L -80.2519,-13.0422 L -80.2774,-12.7325 L -80.2539,-12.4226 L -80.182,-12.1201 L -80.0634,-11.8325  L -79.9012,-11.5668 L -79.6991,-11.3295 L -79.4624,-11.1266 L -79.1967,-10.9629 L -79.1097,-10.9266 L -79.1102,-10.9222  L -77.0058,-9.95807 L -77.0084,-9.95235 L -76.6856,-9.7934 L -76.2696,-9.51894 L -75.8912,-9.19449 L -75.5565,-8.82516  L -75.2708,-8.41682 L -75.0385,-7.97591 L -74.8632,-7.50931 L -74.7478,-7.02446 L -74.6942,-6.52895 L -74.703,-6.03064  L -74.7742,-5.53737 L -74.9067,-5.05688 L -75.0983,-4.59682 L -75.3462,-4.16438 L -75.6462,-3.76643 L -75.9938,-3.40923  L -76.3834,-3.09837 L -76.8088,-2.83882 L -77.2635,-2.63464 L -77.6076,-2.52954 L -77.606,-2.52347 L -79.8378,-1.90936  L -79.838,-1.905 L -79.9297,-1.88309 L -80.2182,-1.76419 L -80.4845,-1.60185 L -80.7219,-1.40007 L -80.9247,-1.1638  L -81.0879,-0.898895 L -81.2074,-0.611847 L -81.2803,-0.309738 L -81.3047,-0 L -81.2803,0.309738 L -81.2074,0.611847  L -81.0879,0.898895 L -80.9247,1.1638 L -80.7219,1.40007 L -80.4845,1.60185 L -80.2182,1.76419 L -79.9297,1.88309  L -79.838,1.905 L -79.8378,1.90936 L -77.606,2.52347 L -77.6076,2.52954 L -77.2635,2.63464 L -76.8088,2.83882  L -76.3834,3.09837 L -75.9938,3.40923 L -75.6462,3.76643 L -75.3462,4.16438 L -75.0983,4.59682 L -74.9067,5.05688  L -74.7742,5.53737 L -74.703,6.03064 L -74.6942,6.52895 L -74.7478,7.02446 L -74.8632,7.50931 L -75.0385,7.97591  L -75.2708,8.41682 L -75.5565,8.82516 L -75.8912,9.19449 L -76.2696,9.51894 L -76.6856,9.7934 L -77.0084,9.95235  L -77.0058,9.95807 L -79.1102,10.9222 L -79.1097,10.9266 L -79.1967,10.9629 L -79.4624,11.1266 L -79.6991,11.3295  L -79.9012,11.5668 L -80.0634,11.8325 L -80.182,12.1201 L -80.2539,12.4226 L -80.2774,12.7325 L -80.2519,13.0422  L -80.178,13.344 L -80.0576,13.6305 L -79.8936,13.8947 L -79.69,14.13 L -79.452,14.3306 L -79.1852,14.4917  L -78.8964,14.6092 L -78.5926,14.6803 L -78.4985,14.6872 L -78.4977,14.6915 L -76.1962,14.9397 L -76.1969,14.9459  L -75.8403,14.9945 L -75.3588,15.1231 L -74.8972,15.311 L -74.4628,15.5553 L -74.0624,15.8522 L -73.7024,16.1968  L -73.3884,16.5839 L -73.1255,17.0073 L -72.9176,17.4603 L -72.7682,17.9357 L -72.6796,18.4262 L -72.6531,18.9239  L -72.6892,19.421 L -72.7873,19.9096 L -72.9459,20.3821 L -73.1624,20.831 L -73.4335,21.2492 L -73.7549,21.6302  L -74.1216,21.9678 L -74.4147,22.1765 L -74.4112,22.1817 L -76.3337,23.471 L -76.3325,23.4752 L -76.4126,23.525  L -76.6485,23.7291 L -76.8497,23.9674 L -77.011,24.234 L -77.1286,24.5223 L -77.1994,24.8253 L -77.2219,25.1354  L -77.1954,25.4451 L -77.1205,25.7466 L -76.9992,26.0327 L -76.8344,26.2961 L -76.6301,26.5306 L -76.3915,26.7302  L -76.1243,26.8901 L -75.8352,27.0063 L -75.5312,27.0759 L -75.2199,27.0974 L -75.126,27.0891 L -75.1244,27.0932  L -72.813,26.9689 L -72.8126,26.9752 L -72.4529,26.9659 L -71.957,27.0156 L -71.4712,27.1271 L -71.0033,27.2986  L -70.5605,27.5273 L -70.1498,27.8098 L -69.7778,28.1415 L -69.4504,28.5172 L -69.1725,28.931 L -68.9488,29.3763  L -68.7826,29.8462 L -68.6766,30.3332 L -68.6325,30.8296 L -68.651,31.3277 L -68.7317,31.8195 L -68.8735,32.2973  L -69.074,32.7536 L -69.3301,33.1812 L -69.6378,33.5733 L -69.8937,33.8263 L -69.8894,33.8309 L -71.5802,35.4118  L -71.5783,35.4158 L -71.6494,35.4778 L -71.8495,35.7171 L -72.0099,35.9846 L -72.1263,36.2736 L -72.1961,36.5771  L -72.2175,36.8875 L -72.1899,37.1972 L -72.114,37.4986 L -71.9918,37.7842 L -71.8261,38.0471 L -71.6212,38.2807  L -71.382,38.4793 L -71.1144,38.6381 L -70.825,38.753 L -70.521,38.8214 L -70.2098,38.8414 L -69.8991,38.8126  L -69.8077,38.7894 L -69.8055,38.7931 L -67.5439,38.2997 L -67.5426,38.3059 L -67.189,38.239 L -66.6916,38.2085  L -66.1942,38.2406 L -65.7048,38.3348 L -65.231,38.4895 L -64.7804,38.7025 L -64.36,38.9702 L -63.9765,39.2885  L -63.6359,39.6524 L -63.3436,40.0561 L -63.1042,40.4932 L -62.9215,40.9569 L -62.7983,41.4398 L -62.7367,41.9344  L -62.7375,42.4328 L -62.8007,42.9272 L -62.9254,43.4097 L -63.1097,43.8728 L -63.3505,44.3092 L -63.5625,44.6  L -63.5575,44.6038 L -64.9728,46.4355 L -64.9703,46.4391 L -65.0305,46.5117 L -65.1897,46.7801 L -65.305,47.0698  L -65.3736,47.3738 L -65.3938,47.6845 L -65.3651,47.9943 L -65.2882,48.2955 L -65.165,48.5809 L -64.9985,48.8432  L -64.7928,49.0761 L -64.5531,49.2738 L -64.2851,49.4315 L -63.9955,49.5453 L -63.6915,49.6123 L -63.3804,49.631  L -63.07,49.6008 L -62.768,49.5226 L -62.6815,49.485 L -62.6787,49.4884 L -60.5256,48.6385 L -60.5233,48.6444  L -60.185,48.5217 L -59.6989,48.4118 L -59.2028,48.3637 L -58.7046,48.3781 L -58.2121,48.4549 L -57.7332,48.5928  L -57.2753,48.7896 L -56.8457,49.0423 L -56.4512,49.3468 L -56.0979,49.6984 L -55.7915,50.0915 L -55.5367,50.5199  L -55.3377,50.9768 L -55.1975,51.455 L -55.1183,51.9471 L -55.1015,52.4452 L -55.1472,52.9415 L -55.2547,53.4282  L -55.4224,53.8975 L -55.585,54.2185 L -55.5795,54.2215 L -56.6826,56.2566 L -56.6796,56.2597 L -56.7273,56.341  L -56.8414,56.6315 L -56.9088,56.9359 L -56.9277,57.247 L -56.8979,57.5569 L -56.8198,57.8581 L -56.6956,58.1431  L -56.5282,58.405 L -56.3218,58.6372 L -56.0814,58.8341 L -55.813,58.9908 L -55.5232,59.1035 L -55.2192,59.1693  L -54.9083,59.1867 L -54.5983,59.1552 L -54.2968,59.0757 L -54.0112,58.95 L -53.9318,58.899 L -53.9286,58.9019  L -51.9396,57.7177 L -51.9364,57.7231 L -51.6222,57.5477 L -51.16,57.3612 L -50.678,57.2342 L -50.184,57.1685  L -49.6856,57.1653 L -49.1907,57.2246 L -48.7072,57.3454 L -48.2426,57.5259 L -47.8043,57.7632 L -47.3992,58.0535  L -47.0338,58.3924 L -46.7136,58.7744 L -46.4438,59.1934 L -46.2287,59.643 L -46.0717,60.116 L -45.9751,60.605  L -45.9406,61.1022 L -45.9687,61.5998 L -46.0589,62.09 L -46.1679,62.4329 L -46.162,62.435 L -46.9244,64.6206  L -46.9209,64.6232 L -46.955,64.7111 L -47.021,65.0161 L -47.0387,65.3274 L -47.0075,65.6375 L -46.9283,65.9386  L -46.8029,66.2234 L -46.6346,66.4848 L -46.4274,66.7164 L -46.1864,66.9125 L -45.9175,67.0683 L -45.6275,67.1799  L -45.3234,67.2446 L -45.0127,67.2608 L -44.703,67.2281 L -44.4021,67.1474 L -44.1172,67.0204 L -43.8555,66.8506  L -43.7854,66.7875 L -43.7817,66.7899 L -42.0084,65.3019 L -42.0044,65.3068 L -41.7224,65.0833 L -41.2961,64.8251  L -40.8408,64.6223 L -40.3636,64.4783 L -39.8722,64.3952 L -39.3743,64.3743 L -38.8776,64.416 L -38.3901,64.5196  L -37.9194,64.6835 L -37.473,64.9051 L -37.0579,65.181 L -36.6806,65.5066 L -36.3471,65.877 L -36.0627,66.2863  L -35.8317,66.7279 L -35.658,67.1951 L -35.5442,67.6803 L -35.4921,68.176 L -35.5026,68.6743 L -35.5551,69.0302  L -35.5489,69.0313 L -35.9509,71.311 L -35.947,71.313 L -35.9665,71.4053 L -35.9828,71.7169 L -35.9503,72.027  L -35.8698,72.328 L -35.7433,72.6125 L -35.5739,72.8735 L -35.3658,73.1045 L -35.1241,73.2999 L -34.8547,73.4548  L -34.5644,73.5655 L -34.2602,73.6291 L -33.9496,73.6442 L -33.6404,73.6104 L -33.34,73.5284 L -33.0559,73.4004  L -32.7951,73.2295 L -32.564,73.0198 L -32.5049,72.9463 L -32.5009,72.948 L -30.9893,71.1949 L -30.9845,71.199  L -30.742,70.9332 L -30.3626,70.61 L -29.9457,70.3368 L -29.4979,70.1181 L -29.0262,69.9572 L -28.538,69.8568  L -28.0411,69.8183 L -27.5433,69.8423 L -27.0524,69.9286 L -26.5762,70.0757 L -26.1222,70.2814 L -25.6976,70.5423  L -25.309,70.8544 L -24.9626,71.2127 L -24.6638,71.6116 L -24.4174,72.0449 L -24.2272,72.5056 L -24.0963,72.9865  L -24.0267,73.48 L -24.0215,73.8398 L -24.0152,73.8399 L -24.0462,76.1544 L -24.0421,76.1558 L -24.0466,76.25  L -24.0126,76.5602 L -23.9308,76.8611 L -23.803,77.1453 L -23.6325,77.4058 L -23.4235,77.6363 L -23.181,77.8309  L -22.9111,77.985 L -22.6204,78.0947 L -22.3161,78.1573 L -22.0056,78.1714 L -21.6966,78.1364 L -21.3968,78.0534  L -21.1134,77.9244 L -20.8536,77.7524 L -20.6236,77.5419 L -20.4291,77.2978 L -20.3825,77.2158 L -20.3783,77.2169  L -19.1675,75.244 L -19.1621,75.2473 L -18.9654,74.946 L -18.6428,74.5661 L -18.2751,74.2296 L -17.8682,73.9419  L -17.4284,73.7074 L -16.9626,73.53 L -16.4783,73.4122 L -15.9831,73.3561 L -15.4847,73.3626 L -14.9911,73.4314  L -14.51,73.5616 L -14.049,73.751 L -13.6154,73.9967 L -13.216,74.2948 L -12.8571,74.6407 L -12.5444,75.0287  L -12.2828,75.453 L -12.0764,75.9066 L -11.9285,76.3826 L -11.8657,76.7369 L -11.8594,76.7359 L -11.5188,79.0255  L -11.5145,79.0262 L -11.5038,79.1199 L -11.4206,79.4207 L -11.2915,79.7045 L -11.1198,79.9646 L -10.9097,80.1944  L -10.6664,80.3883 L -10.3958,80.5415 L -10.1047,80.6503 L -9.8002,80.7119 L -9.48976,80.725 L -9.18106,80.689  L -8.88171,80.605 L -8.59906,80.4749 L -8.34007,80.3021 L -8.11115,80.0907 L -7.91789,79.846 L -7.76509,79.5739  L -7.73228,79.4855 L -7.72794,79.4858 L -6.84929,77.3443 L -6.84346,77.3467 L -6.69763,77.0177 L -6.44014,76.591  L -6.1312,76.1999 L -5.77565,75.8506 L -5.37915,75.5486 L -4.94794,75.2988 L -4.48878,75.1049 L -4.00897,74.9701  L -3.51602,74.8965 L -3.01776,74.8852 L -2.52202,74.9365 L -2.03661,75.0496 L -1.56918,75.2225 L -1.12712,75.4527  L -0.717407,75.7365 L -0.346497,76.0694 L -0.0202179,76.4462 L 0.256241,76.8609 L 0.478561,77.3069 L 0.597443,77.6465  L 0.603455,77.6446 L 1.30693,79.8499 L 1.31128,79.8499 L 1.33687,79.9407 L 1.46729,80.2242 L 1.64021,80.4837  L 1.85139,80.7128 L 2.09563,80.9059 L 2.3669,81.0583 L 2.65852,81.1661 L 2.96333,81.2268 L 3.2738,81.2388  z M 5.39673,62.8779 L 1.63007,62.275 L -1.97365,61.3029 L -5.37498,59.9722 L -8.53667,58.2977 L -11.424,56.2975  L -14.0054,53.9936 L -16.2527,51.4113 L -18.141,48.5788 L -19.6498,45.5272 L -19.9227,44.7333 L -20.3553,44.572  L -26.4914,41.2214 L -28.661,39.5973 L -29.6028,39.7809 L -33,40 L -36.3972,39.7809 L -39.7571,39.1259  L -43.043,38.0423 L -46.2189,36.5418 L -49.25,34.641 L -52.103,32.3607 L -54.7467,29.7258 L -57.1522,26.7652  L -59.293,23.5114 L -61.1458,20 L -62.6902,16.2695 L -63.9093,12.3607 L -64.7898,8.31647 L -65.322,4.18114  L -65.5,-0 L -65.322,-4.18114 L -64.7898,-8.31647 L -63.9093,-12.3607 L -62.6902,-16.2695 L -61.1458,-20  L -59.293,-23.5114 L -57.1522,-26.7652 L -54.7467,-29.7258 L -52.103,-32.3607 L -49.25,-34.641 L -46.2189,-36.5418  L -43.043,-38.0423 L -39.7571,-39.1259 L -36.3972,-39.7809 L -33,-40 L -29.6028,-39.7809 L -28.661,-39.5973  L -26.4914,-41.2214 L -20.3553,-44.572 L -19.9227,-44.7333 L -19.6498,-45.5272 L -18.141,-48.5788 L -16.2527,-51.4113  L -14.0054,-53.9936 L -11.424,-56.2975 L -8.53667,-58.2977 L -5.37498,-59.9722 L -1.97365,-61.3029 L 1.63007,-62.275  L 5.39673,-62.8779 L 9.28503,-63.105 L 13.2524,-62.9538 L 17.2553,-62.4261 L 21.25,-61.5274 L 25.1926,-60.2678  L 29.04,-58.661 L 32.75,-56.7247 L 36.282,-54.4799 L 39.5972,-51.9514 L 42.6593,-49.1668 L 45.4349,-46.1566  L 47.8934,-42.9538 L 50.008,-39.5936 L 51.7555,-36.1126 L 53.1167,-32.5492 L 54.0767,-28.9422 L 54.625,-25.3312  L 54.7556,-21.7559 L 54.4671,-18.2552 L 53.7626,-14.8677 L 52.6498,-11.6304 L 51.141,-8.57883 L 49.2527,-5.74635  L 48.6394,-5.04166 L 49,-0 L 48.6394,5.04166 L 49.2527,5.74635 L 51.141,8.57883 L 52.6498,11.6304  L 53.7626,14.8677 L 54.4671,18.2552 L 54.7556,21.7559 L 54.625,25.3312 L 54.0767,28.9422 L 53.1167,32.5492  L 51.7555,36.1126 L 50.008,39.5936 L 47.8934,42.9538 L 45.4349,46.1566 L 42.6593,49.1668 L 39.5972,51.9514  L 36.282,54.4799 L 32.75,56.7247 L 29.04,58.661 L 25.1926,60.2678 L 21.25,61.5274 L 17.2553,62.4261  L 13.2524,62.9538 L 9.28503,63.105 z M -31.0337,-45.6617 L -32.3456,-46.5137 L -33.3301,-47.7295 L -33.8907,-49.1899 L -33.9726,-50.7521 L -33.5677,-52.2632  L -32.7157,-53.5751 L -31.5,-54.5596 L -30.0396,-55.1202 L -28.4774,-55.2021 L -26.9663,-54.7972 L -25.6543,-53.9452  L -24.6699,-52.7295 L -24.1093,-51.269 L -24.0274,-49.7068 L -24.4323,-48.1958 L -25.2843,-46.8838 L -26.5,-45.8993  L -27.9604,-45.3387 L -29.5226,-45.2569 z M 56.4549,4.75528 L 55.0611,4.04507 L 53.9549,2.93892 L 53.2447,1.54507 L 53,-0 L 53.2447,-1.54507  L 53.9549,-2.93892 L 55.0611,-4.04507 L 56.4549,-4.75528 L 58,-5 L 59.5451,-4.75528 L 60.9389,-4.04507  L 62.0451,-2.93892 L 62.7553,-1.54507 L 63,-0 L 62.7553,1.54507 L 62.0451,2.93892 L 60.9389,4.04507  L 59.5451,4.75528 L 58,5 z M -30.0396,55.1202 L -31.5,54.5596 L -32.7157,53.5751 L -33.5677,52.2632 L -33.9726,50.7521 L -33.8907,49.1899  L -33.3301,47.7295 L -32.3456,46.5137 L -31.0337,45.6617 L -29.5226,45.2569 L -27.9604,45.3387 L -26.5,45.8993  L -25.2843,46.8838 L -24.4323,48.1958 L -24.0274,49.7068 L -24.1093,51.269 L -24.6699,52.7295 L -25.6543,53.9452  L -26.9663,54.7972 L -28.4774,55.2021 z "
     stroke="black"
     fill="lightgray"
     stroke-width="0.5"
     id="path4"
     style="stroke:none;stroke-opacity:1;fill:#ff0000;fill-opacity:1" />
  <metadata
     id="metadata1272">
    <rdf:RDF>
      <cc:Work
         rdf:about="">
        <dc:title>OpenSCAD Model</dc:title>
      </cc:Work>
    </rdf:RDF>
  </metadata>
</svg>
