<svg xmlns="http://www.w3.org/2000/svg" version="1.1" width="400" height="400" viewBox="0 0 400 400">

<g transform="scale(5,-5) translate(40,-40)">

<path d="M 30.03 -8.49 A 8.241480449530897 8.241480449530897 0 0 1 30.89 -4.46 L 29.04 -3.71 A 4 4 0 0 0 29.04 3.71 L 30.89 4.46 A 8.241480449530897 8.241480449530897 0 0 1 30.03 8.49 L 28.04 8.42 A 4 4 0 0 0 25.02 15.2 L 26.41 16.64 A 8.241480449530897 8.241480449530897 0 0 1 23.98 19.97 L 22.19 19.1 A 4 4 0 0 0 16.67 24.06 L 17.36 25.94 A 8.241480449530897 8.241480449530897 0 0 1 13.79 28.0 L 12.5 26.47 A 4 4 0 0 0 5.45 28.77 L 5.3 30.76 A 8.241480449530897 8.241480449530897 0 0 1 1.21 31.19 L 0.65 29.27 A 4 4 0 0 0 -6.73 28.49 L -7.66 30.25 A 8.241480449530897 8.241480449530897 0 0 1 -11.58 28.98 L -11.31 27.0 A 4 4 0 0 0 -17.73 23.29 L -19.31 24.52 A 8.241480449530897 8.241480449530897 0 0 1 -22.37 21.76 L -21.31 20.07 A 4 4 0 0 0 -25.67 14.07 L -27.61 14.55 A 8.241480449530897 8.241480449530897 0 0 1 -29.29 10.78 L -27.63 9.67 A 4 4 0 0 0 -29.18 2.41 L -31.14 2.06 A 8.241480449530897 8.241480449530897 0 0 1 -31.14 -2.06 L -29.18 -2.41 A 4 4 0 0 0 -27.63 -9.67 L -29.29 -10.78 A 8.241480449530897 8.241480449530897 0 0 1 -27.61 -14.55 L -25.67 -14.07 A 4 4 0 0 0 -21.31 -20.07 L -22.37 -21.76 A 8.241480449530897 8.241480449530897 0 0 1 -19.31 -24.52 L -17.73 -23.29 A 4 4 0 0 0 -11.31 -27.0 L -11.58 -28.98 A 8.241480449530897 8.241480449530897 0 0 1 -7.66 -30.25 L -6.73 -28.49 A 4 4 0 0 0 0.65 -29.27 L 1.21 -31.19 A 8.241480449530897 8.241480449530897 0 0 1 5.3 -30.76 L 5.45 -28.77 A 4 4 0 0 0 12.5 -26.47 L 13.79 -28.0 A 8.241480449530897 8.241480449530897 0 0 1 17.36 -25.94 L 16.67 -24.06 A 4 4 0 0 0 22.19 -19.1 L 23.98 -19.97 A 8.241480449530897 8.241480449530897 0 0 1 26.41 -16.64 L 25.02 -15.2 A 4 4 0 0 0 28.04 -8.42 L 30.03 -8.49 Z" /><circle cx="0" cy="0" r="20" fill="#fff" stroke="none"/>

</g>

</svg>
